<?xml version="1.0" standalone="no"?>
<!DOCTYPE svg PUBLIC "-//W3C//DTD SVG 1.1//EN"
"http://www.w3.org/Graphics/SVG/1.1/DTD/svg11.dtd">

<svg width="587" height="449" view_box="0 0 587 449"
xmlns="http://www.w3.org/2000/svg"
xmlns:link="http://www.w3.org/1999/xlink">\n\n<desc>Généré par Mocodo 2.3.7 le Wed, 05 May 2021 05:47:56</desc>

<rect id="frame" x="0" y="0" width="587" height="449" fill="#f7f7f7" stroke="none" stroke-width="0"/>

<!-- Association REPRÉSENTER -->
<line x1="228" y1="237" x2="75" y2="237" stroke="#7fbc41" stroke-width="2"/>
<text x="131" y="254.0" fill="#c51b7d" font-family="Verdana" font-size="12">0,N</text>
<line x1="75" y1="389" x2="75" y2="237" stroke="#7fbc41" stroke-width="2"/>
<text x="80.0" y="339" fill="#c51b7d" font-family="Verdana" font-size="12">1,1</text>
<g id="association-REPRÉSENTER">
	<path d="M 112 212 a 14 14 90 0 1 14 14 V 237 h -102 V 226 a 14 14 90 0 1 14 -14" fill="#b8e186" stroke="#b8e186" stroke-width="0"/>
	<path d="M 126 237.0 v 11 a 14 14 90 0 1 -14 14 H 38 a 14 14 90 0 1 -14 -14 V 237.0 H 102" fill="#e6f5d0" stroke="#e6f5d0" stroke-width="0"/>
	<rect x="24" y="212" width="102" height="50" fill="none" rx="14" stroke="#7fbc41" stroke-width="2"/>
	<line x1="24" y1="237" x2="126" y2="237" stroke="#7fbc41" stroke-width="1"/>
	<text x="31" y="229.7" fill="#000000" font-family="Verdana" font-size="12">REPRÉSENTER</text>
</g>

<!-- Association ILLUSTRER -->
<line x1="523" y1="237" x2="523" y2="68" stroke="#7fbc41" stroke-width="2"/>
<text x="528.0" y="127" fill="#c51b7d" font-family="Verdana" font-size="12">0,N</text>
<line x1="380" y1="68" x2="523" y2="68" stroke="#7fbc41" stroke-width="2"/>
<text x="455" y="85.0" fill="#c51b7d" font-family="Verdana" font-size="12">1,1</text>
<g id="association-ILLUSTRER">
	<path d="M 550 43 a 14 14 90 0 1 14 14 V 68 h -82 V 57 a 14 14 90 0 1 14 -14" fill="#b8e186" stroke="#b8e186" stroke-width="0"/>
	<path d="M 564 68.0 v 11 a 14 14 90 0 1 -14 14 H 496 a 14 14 90 0 1 -14 -14 V 68.0 H 82" fill="#e6f5d0" stroke="#e6f5d0" stroke-width="0"/>
	<rect x="482" y="43" width="82" height="50" fill="none" rx="14" stroke="#7fbc41" stroke-width="2"/>
	<line x1="482" y1="68" x2="564" y2="68" stroke="#7fbc41" stroke-width="1"/>
	<text x="489" y="60.7" fill="#000000" font-family="Verdana" font-size="12">ILLUSTRER</text>
</g>

<!-- Association PROMOUVOIR -->
<line x1="228" y1="237" x2="228" y2="68" stroke="#7fbc41" stroke-width="2"/>
<text x="233.0" y="144" fill="#c51b7d" font-family="Verdana" font-size="12">0,N</text>
<line x1="75" y1="68" x2="228" y2="68" stroke="#7fbc41" stroke-width="2"/>
<text x="122" y="85.0" fill="#c51b7d" font-family="Verdana" font-size="12">1,1</text>
<g id="association-PROMOUVOIR">
	<path d="M 264 43 a 14 14 90 0 1 14 14 V 68 h -100 V 57 a 14 14 90 0 1 14 -14" fill="#b8e186" stroke="#b8e186" stroke-width="0"/>
	<path d="M 278 68.0 v 11 a 14 14 90 0 1 -14 14 H 192 a 14 14 90 0 1 -14 -14 V 68.0 H 100" fill="#e6f5d0" stroke="#e6f5d0" stroke-width="0"/>
	<rect x="178" y="43" width="100" height="50" fill="none" rx="14" stroke="#7fbc41" stroke-width="2"/>
	<line x1="178" y1="68" x2="278" y2="68" stroke="#7fbc41" stroke-width="1"/>
	<text x="185" y="60.7" fill="#000000" font-family="Verdana" font-size="12">PROMOUVOIR</text>
</g>

<!-- Association ASSOCIER -->
<line x1="228" y1="237" x2="380" y2="237" stroke="#7fbc41" stroke-width="2"/>
<text x="303" y="254.0" fill="#c51b7d" font-family="Verdana" font-size="12">0,N</text>
<line x1="523" y1="237" x2="380" y2="237" stroke="#7fbc41" stroke-width="2"/>
<text x="442" y="254.0" fill="#c51b7d" font-family="Verdana" font-size="12">1,1</text>
<g id="association-ASSOCIER">
	<path d="M 405 212 a 14 14 90 0 1 14 14 V 237 h -78 V 226 a 14 14 90 0 1 14 -14" fill="#b8e186" stroke="#b8e186" stroke-width="0"/>
	<path d="M 419 237.0 v 11 a 14 14 90 0 1 -14 14 H 355 a 14 14 90 0 1 -14 -14 V 237.0 H 78" fill="#e6f5d0" stroke="#e6f5d0" stroke-width="0"/>
	<rect x="341" y="212" width="78" height="50" fill="none" rx="14" stroke="#7fbc41" stroke-width="2"/>
	<line x1="341" y1="237" x2="419" y2="237" stroke="#7fbc41" stroke-width="1"/>
	<text x="348" y="229.7" fill="#000000" font-family="Verdana" font-size="12">ASSOCIER</text>
</g>

<!-- Association AJOUTER -->
<line x1="380" y1="389" x2="228" y2="389" stroke="#7fbc41" stroke-width="2"/>
<text x="306" y="406.0" fill="#c51b7d" font-family="Verdana" font-size="12">0,N</text>
<line x1="228" y1="237" x2="228" y2="389" stroke="#7fbc41" stroke-width="2"/>
<text x="233.0" y="339" fill="#c51b7d" font-family="Verdana" font-size="12">0,1</text>
<g id="association-AJOUTER">
	<path d="M 249 364 a 14 14 90 0 1 14 14 V 389 h -70 V 378 a 14 14 90 0 1 14 -14" fill="#b8e186" stroke="#b8e186" stroke-width="0"/>
	<path d="M 263 389.0 v 11 a 14 14 90 0 1 -14 14 H 207 a 14 14 90 0 1 -14 -14 V 389.0 H 70" fill="#e6f5d0" stroke="#e6f5d0" stroke-width="0"/>
	<rect x="193" y="364" width="70" height="50" fill="none" rx="14" stroke="#7fbc41" stroke-width="2"/>
	<line x1="193" y1="389" x2="263" y2="389" stroke="#7fbc41" stroke-width="1"/>
	<text x="200" y="381.7" fill="#000000" font-family="Verdana" font-size="12">AJOUTER</text>
</g>

<!-- Entity UTILISATEUR -->
<g id="entity-UTILISATEUR">
	<g id="frame-UTILISATEUR">
		<rect x="333" y="338" width="94" height="25" fill="#f1b6da" stroke="#f1b6da" stroke-width="0"/>
		<rect x="333" y="363.0" width="94" height="77" fill="#fde0ef" stroke="#fde0ef" stroke-width="0"/>
		<rect x="333" y="338" width="94" height="102" fill="none" stroke="#de77ae" stroke-width="2"/>
		<line x1="333" y1="363" x2="427" y2="363" stroke="#de77ae" stroke-width="1"/>
	</g>
	<text x="338" y="355.7" fill="#000000" font-family="Verdana" font-size="12">UTILISATEUR</text>
	<text x="338" y="380.7" fill="#000000" font-family="Verdana" font-size="12">pseudo</text>
	<text x="338" y="397.8" fill="#000000" font-family="Verdana" font-size="12">email</text>
	<text x="338" y="414.8" fill="#000000" font-family="Verdana" font-size="12">mot de passe</text>
	<text x="338" y="431.8" fill="#000000" font-family="Verdana" font-size="12">rôle</text>
</g>

<!-- Entity RANDONNÉE -->
<g id="entity-RANDONNÉE">
	<g id="frame-RANDONNÉE">
		<rect x="468" y="135" width="110" height="25" fill="#f1b6da" stroke="#f1b6da" stroke-width="0"/>
		<rect x="468" y="160.0" width="110" height="179" fill="#fde0ef" stroke="#fde0ef" stroke-width="0"/>
		<rect x="468" y="135" width="110" height="204" fill="none" stroke="#de77ae" stroke-width="2"/>
		<line x1="468" y1="160" x2="578" y2="160" stroke="#de77ae" stroke-width="1"/>
	</g>
	<text x="484" y="152.7" fill="#000000" font-family="Verdana" font-size="12">RANDONNÉE</text>
	<text x="473" y="177.7" fill="#000000" font-family="Verdana" font-size="12">nom</text>
	<text x="473" y="194.7" fill="#000000" font-family="Verdana" font-size="12">image principale</text>
	<text x="473" y="211.7" fill="#000000" font-family="Verdana" font-size="12">description</text>
	<text x="473" y="228.7" fill="#000000" font-family="Verdana" font-size="12">URL GPX</text>
	<text x="473" y="245.8" fill="#000000" font-family="Verdana" font-size="12">difficulté</text>
	<text x="473" y="262.8" fill="#000000" font-family="Verdana" font-size="12">URL map</text>
	<text x="473" y="279.8" fill="#000000" font-family="Verdana" font-size="12">temps</text>
	<text x="473" y="296.8" fill="#000000" font-family="Verdana" font-size="12">kilomètres</text>
	<text x="473" y="313.8" fill="#000000" font-family="Verdana" font-size="12">altitude max</text>
	<text x="473" y="330.8" fill="#000000" font-family="Verdana" font-size="12">altitude min</text>
</g>

<!-- Entity PHOTO_BRASSERIE -->
<g id="entity-PHOTO_BRASSERIE">
	<g id="frame-PHOTO_BRASSERIE">
		<rect x="9" y="347" width="132" height="25" fill="#f1b6da" stroke="#f1b6da" stroke-width="0"/>
		<rect x="9" y="372.0" width="132" height="59" fill="#fde0ef" stroke="#fde0ef" stroke-width="0"/>
		<rect x="9" y="347" width="132" height="84" fill="none" stroke="#de77ae" stroke-width="2"/>
		<line x1="9" y1="372" x2="141" y2="372" stroke="#de77ae" stroke-width="1"/>
	</g>
	<text x="14" y="364.7" fill="#000000" font-family="Verdana" font-size="12">PHOTO_BRASSERIE</text>
	<text x="14" y="389.8" fill="#000000" font-family="Verdana" font-size="12">URL photo</text>
	<text x="14" y="406.8" fill="#000000" font-family="Verdana" font-size="12">légende</text>
	<text x="14" y="423.8" fill="#000000" font-family="Verdana" font-size="12">texte alternatif</text>
</g>

<!-- Entity PHOTO_RANDONNEE -->
<g id="entity-PHOTO_RANDONNEE">
	<g id="frame-PHOTO_RANDONNEE">
		<rect x="310" y="26" width="140" height="25" fill="#f1b6da" stroke="#f1b6da" stroke-width="0"/>
		<rect x="310" y="51.0" width="140" height="59" fill="#fde0ef" stroke="#fde0ef" stroke-width="0"/>
		<rect x="310" y="26" width="140" height="84" fill="none" stroke="#de77ae" stroke-width="2"/>
		<line x1="310" y1="51" x2="450" y2="51" stroke="#de77ae" stroke-width="1"/>
	</g>
	<text x="315" y="43.7" fill="#000000" font-family="Verdana" font-size="12">PHOTO_RANDONNEE</text>
	<text x="315" y="68.8" fill="#000000" font-family="Verdana" font-size="12">URL photo</text>
	<text x="315" y="85.8" fill="#000000" font-family="Verdana" font-size="12">légende</text>
	<text x="315" y="102.8" fill="#000000" font-family="Verdana" font-size="12">texte alternatif</text>
</g>

<!-- Entity BIÈRE -->
<g id="entity-BIÈRE">
	<g id="frame-BIÈRE">
		<rect x="33" y="9" width="84" height="25" fill="#f1b6da" stroke="#f1b6da" stroke-width="0"/>
		<rect x="33" y="34.0" width="84" height="93" fill="#fde0ef" stroke="#fde0ef" stroke-width="0"/>
		<rect x="33" y="9" width="84" height="118" fill="none" stroke="#de77ae" stroke-width="2"/>
		<line x1="33" y1="34" x2="117" y2="34" stroke="#de77ae" stroke-width="1"/>
	</g>
	<text x="56" y="26.7" fill="#000000" font-family="Verdana" font-size="12">BIÈRE</text>
	<text x="38" y="51.7" fill="#000000" font-family="Verdana" font-size="12">nom</text>
	<text x="38" y="68.8" fill="#000000" font-family="Verdana" font-size="12">description</text>
	<text x="38" y="85.8" fill="#000000" font-family="Verdana" font-size="12">image</text>
	<text x="38" y="102.8" fill="#000000" font-family="Verdana" font-size="12">degré alcool</text>
	<text x="38" y="119.8" fill="#000000" font-family="Verdana" font-size="12">type</text>
</g>

<!-- Entity BRASSERIE -->
<g id="entity-BRASSERIE">
	<g id="frame-BRASSERIE">
		<rect x="158" y="152" width="140" height="25" fill="#f1b6da" stroke="#f1b6da" stroke-width="0"/>
		<rect x="158" y="177.0" width="140" height="145" fill="#fde0ef" stroke="#fde0ef" stroke-width="0"/>
		<rect x="158" y="152" width="140" height="170" fill="none" stroke="#de77ae" stroke-width="2"/>
		<line x1="158" y1="177" x2="298" y2="177" stroke="#de77ae" stroke-width="1"/>
	</g>
	<text x="192" y="169.7" fill="#000000" font-family="Verdana" font-size="12">BRASSERIE</text>
	<text x="163" y="194.7" fill="#000000" font-family="Verdana" font-size="12">nom</text>
	<text x="163" y="211.7" fill="#000000" font-family="Verdana" font-size="12">image principale</text>
	<text x="163" y="228.7" fill="#000000" font-family="Verdana" font-size="12">description</text>
	<text x="163" y="245.8" fill="#000000" font-family="Verdana" font-size="12">région</text>
	<text x="163" y="262.8" fill="#000000" font-family="Verdana" font-size="12">slug</text>
	<text x="163" y="279.8" fill="#000000" font-family="Verdana" font-size="12">adresse</text>
	<text x="163" y="296.8" fill="#000000" font-family="Verdana" font-size="12">email</text>
	<text x="163" y="313.8" fill="#000000" font-family="Verdana" font-size="12">numéro de téléphone</text>
</g>
</svg>