<?xml version="1.0" encoding="utf-8"?>
<!-- Generator: Adobe Illustrator 24.0.2, SVG Export Plug-In . SVG Version: 6.00 Build 0)  -->
<svg version="1.1" id="Calque_1" xmlns="http://www.w3.org/2000/svg" xmlns:xlink="http://www.w3.org/1999/xlink" x="0px" y="0px"
	 viewBox="0 0 24 24" style="enable-background:new 0 0 24 24;" xml:space="preserve">
<style type="text/css">
	.st0{fill:#4B5C6B;}
</style>
<g>
	<path class="st0" d="M3,22c0,1.1,0.9,2,2,2h14c1.1,0,2-0.9,2-2V6H3V22z M15.4,10c0-0.6,0.4-1,1-1s1,0.4,1,1v9c0,0.6-0.4,1-1,1
		s-1-0.4-1-1V10z M11,10c0-0.6,0.4-1,1-1s1,0.4,1,1v9c0,0.6-0.4,1-1,1s-1-0.4-1-1V10z M6.6,10c0-0.6,0.4-1,1-1s1,0.4,1,1v9
		c0,0.6-0.4,1-1,1s-1-0.4-1-1V10z"/>
	<path class="st0" d="M16,3V1.5C16,0.7,15.3,0,14.5,0h-5C8.7,0,8,0.7,8,1.5V3H2v2h20V3H16z"/>
</g>
</svg>
