<?xml version="1.0" encoding="utf-8"?>
<!-- Generator: Adobe Illustrator 24.0.2, SVG Export Plug-In . SVG Version: 6.00 Build 0)  -->
<svg version="1.1" id="Layer_1" xmlns="http://www.w3.org/2000/svg" xmlns:xlink="http://www.w3.org/1999/xlink" x="0px" y="0px"
	 viewBox="0 0 512 512" style="enable-background:new 0 0 512 512;" xml:space="preserve">
<style type="text/css">
	.st0{fill:#DBAD4D;}
</style>
<g id="XMLID_2001_">
	<g id="XMLID_142_">
		<path id="XMLID_150_" class="st0" d="M331.4,197c-14.1-14.1-20.9-34.4-18-54.1c2.5-17.6,0.5-35.7-5.9-52.4l-12-31.4
			c3.5-1.6,5.9-5.1,5.9-9.1V26c0-14.3-11.7-26-26-26h-38.8c-14.3,0-26,11.7-26,26v24c0,4.1,2.4,7.5,5.9,9.1l-12,31.4
			c-6.4,16.6-8.4,34.8-5.9,52.4c2.8,19.8-3.9,40-18,54.1c-15.8,15.8-24.5,36.9-24.5,59.2V462c0,27.6,22.4,50,50,50H306
			c27.6,0,50-22.4,50-50V256.3C356,233.9,347.3,212.9,331.4,197L331.4,197z M217.6,131.5c-0.5-11.5,1.4-23.1,5.5-33.8L237.6,60h36.9
			l14.4,37.7c4.1,10.8,6,22.3,5.5,33.9L256,169.9L217.6,131.5z M230.6,26c0-3.3,2.7-6,6-6h38.8c3.3,0,6,2.7,6,6v14h-0.1h-50.6h-0.1
			L230.6,26z M301,337.1h34.4c0.3,3,0.5,6,0.5,9.1V372c0,3.1-0.2,6.1-0.5,9.1H176.6c-0.3-3-0.5-6-0.5-9.1v-25.8
			c0-3.1,0.2-6.1,0.5-9.1H211c5.5,0,10-4.5,10-10s-4.5-10-10-10h-29.5c11.7-29.7,40.6-50.9,74.5-50.9s62.8,21.1,74.5,50.9H301
			c-5.5,0-10,4.5-10,10S295.5,337.1,301,337.1L301,337.1z M330.5,401.1C318.8,430.9,289.8,452,256,452s-62.8-21.1-74.5-50.9H330.5z
			 M336,462c0,16.5-13.5,30-30,30H206c-16.5,0-30-13.5-30-30v-30c18.3,24.3,47.3,40,80,40s61.7-15.7,80-40L336,462z M256,246.3
			c-32.7,0-61.7,15.7-80,40v-30c0-17,6.6-33.1,18.7-45.1c13.6-13.6,22-31.5,24-50.3l30.2,30.2c2,2,4.5,2.9,7.1,2.9s5.1-1,7.1-2.9
			l30.2-30.2c2.1,18.8,10.4,36.7,24,50.3c12,12,18.7,28.1,18.7,45.1v30C317.7,262,288.7,246.3,256,246.3L256,246.3z"/>
		<path id="XMLID_165_" class="st0" d="M256,317.1c-2.6,0-5.2,1.1-7.1,2.9s-2.9,4.4-2.9,7.1s1.1,5.2,2.9,7.1s4.4,2.9,7.1,2.9
			s5.2-1.1,7.1-2.9c1.9-1.9,2.9-4.4,2.9-7.1s-1.1-5.2-2.9-7.1C261.2,318.2,258.6,317.1,256,317.1z"/>
	</g>
</g>
</svg>
