<svg id="Calque_1" data-name="Calque 1" xmlns="http://www.w3.org/2000/svg" viewBox="0 0 587 301"><defs><style>.cls-1{fill:#fff;}</style></defs><title>logo_black</title><polygon points="114.04 164.16 220.04 88.16 236.04 102.16 292.04 57.16 344.04 99.16 356.04 87.16 462.04 161.16 367.54 115.66 366.54 137.66 296.54 91.66 282.54 104.66 318.54 141.66 270.54 118.66 256.54 129.66 226.54 112.66 216.54 118.66 276.54 158.66 195.54 129.66 114.04 164.16"/><path class="cls-1" d="M192.3,115.62l4.14,5.35a3,3,0,0,0,2.56-.17l14.22-11s2.27-2.66,2.2-4.85c.79-1.07,6.55-5.51,6.55-5.51a1.36,1.36,0,0,0,0-1.37l-1.52-2s-1-.58-1.33-.32L212.37,101a8,8,0,0,0-4.48,1.21l-14.21,11S191.43,114.49,192.3,115.62Z"/><path class="cls-1" d="M339.83,110.72l3.45,3.77a2.26,2.26,0,0,0,1.92-.3l10-9.17s1.54-2.15,1.34-3.79a58.8,58.8,0,0,1,4.58-4.57,1,1,0,0,0-.07-1l-1.27-1.39s-.79-.38-1-.16L354,98.45a6,6,0,0,0-3.29,1.19l-10,9.17S339.1,109.92,339.83,110.72Z"/><path class="cls-1" d="M242.24,108l8,9.48s2.88,1,4.68-.53L280,95.75s4-5,3.64-9c1.38-2,11.55-10.59,11.55-10.59a2.51,2.51,0,0,0-.07-2.5l-2.94-3.49s-1.86-1-2.46-.49l-12,10.09s-5.1,0-8.09,2.55l-25.13,21.18S240.56,106,242.24,108Z"/><path d="M96.38,238.68c-1.23-.77-2.62-1.11-3.67-2.15-.18-.17-.44-.08-.61,0a1.39,1.39,0,0,1-.88-.43,4.12,4.12,0,0,0-2.7-1.37,30.52,30.52,0,0,1-7.69-2.84.3.3,0,0,0,.26-.09c.09-.08.09-.26,0-.26a.17.17,0,0,0-.26-.08.27.27,0,0,0-.09.17.48.48,0,0,0,.09.34c-.52-.17-1-.25-1.57-.43-.18-.08-.44-.17-.44-.25.09-1-.87-1-1.39-1.21-1.05-.43-2.1-.69-3.15-1-.61-.17-1.31-.52-1.92-.09a.82.82,0,0,1-.79,0,12.94,12.94,0,0,1-3-1.63,1.77,1.77,0,0,0-1.14.95,10.28,10.28,0,0,0-1,2.23,20.28,20.28,0,0,1-2.18,5.94c-.09.08,0,.17,0,.26a.29.29,0,0,0,.35,0c.17-.18.44-.35.61-.52a3.94,3.94,0,0,1-1,1.72.94.94,0,0,1-1.22.43c-.44-.17-.79.26-1.22.34-.7.18-1.31.26-1.75-.43a1,1,0,0,0-1.13-.43,1.42,1.42,0,0,1-1.4-.68,3.59,3.59,0,0,1-1-2.33c-.09-.51-.17-.86-.7-1A3.32,3.32,0,0,1,54,231.11a6.69,6.69,0,0,1,.09-2.23,34,34,0,0,1,3-8.52c.78-1.63,1.4-3.35,2.36-5a1.7,1.7,0,0,0,.17-.6c.53-2.66,1.84-5.07,2.88-7.48.7-1.81,1.31-3.7,2.1-5.51.7-1.46,1.4-2.83,2.09-4.3,1.49-3.44,3.5-6.53,5.24-9.8.35-.69.88-1.38,1.31-2.07a4.6,4.6,0,0,0,.53-.69c.26-.43.09-.77-.44-1-.17-.08-.35-.08-.61-.17a5.37,5.37,0,0,1,.87-.26c.09-.08.18-.17.18-.26a.19.19,0,0,0-.18-.17,1.18,1.18,0,0,0-.52-.08c-3.14.17-6.29.6-9.34,1-.79.08-1.49.17-2.19.26h-.78c-.18-.09-.35-.18-.35-.35s.08-.26.17-.26a2.8,2.8,0,0,1,.79-.17c2.27-.17,4.45-.6,6.63-.86s4.28-.51,6.38-.6a3.54,3.54,0,0,0,1.66-.26.31.31,0,0,0,.17-.43c0-.08-.17-.17-.26-.17a1.44,1.44,0,0,0-.61-.09,67.23,67.23,0,0,0-13,1.64,5.76,5.76,0,0,1-2.1.17c-1-.09-1.57-.77-1-1.72.09-.09.09-.17.18-.26.26-.26.26-.51,0-.86a1.47,1.47,0,0,1,.35-2.06,3.29,3.29,0,0,1,1.31-.78A32.26,32.26,0,0,1,68.69,175c.18,0,.44-.09.61-.09a13.2,13.2,0,0,0,4.11-.6,12.55,12.55,0,0,1,3.58-.52c2.27-.08,4.54-.26,6.81-.34a20.69,20.69,0,0,1,2.27.08,57,57,0,0,1,6.72,1,16.83,16.83,0,0,1,10,5.85,14.39,14.39,0,0,1,3,5.67,46.56,46.56,0,0,1,1.13,6.88,24.5,24.5,0,0,1-.17,5.08,3.66,3.66,0,0,1-.35,1.29,22,22,0,0,1-3.15,5c-.78.94-1.92,1.72-2.44,3-.26.6-1,.86-1.57,1.2a.77.77,0,0,0-.53.86,26,26,0,0,1-2.44,2,16.4,16.4,0,0,0-3.15,2.84,6.57,6.57,0,0,1-2,1.38c-.35,0-.44.08-.35.34a14.82,14.82,0,0,1-1.31,1v.08h-.7v-.08c-.35.17-.79.25-1.14.43s-.26.34.18.6h-.09a3.37,3.37,0,0,1-2.62,1c-.52-.09-.7.09-.79.77,0,.43-.52.78-.26,1.29s.79.52,1.23.78a72,72,0,0,0,7.5,3.27,5,5,0,0,1,2,1.12,6.07,6.07,0,0,0,1.92,1.29,14.58,14.58,0,0,1,2.8,1.72,3.87,3.87,0,0,1,1.57,2.75c.09.34-.09.6-.52.69s-.61.34-.61.77a6.6,6.6,0,0,0,.52,1.2,3.65,3.65,0,0,1,.44,1.72.87.87,0,0,1-1.14.95,6.41,6.41,0,0,1-1.13-.26c-.27-.08-.62-.43-.79-.08s.35.51.52.77c.18.09.27.17.44.26.35.26,1,.43.87.86-.08.6-.78.34-1.22.43A2.94,2.94,0,0,1,96.38,238.68ZM65.11,178.47c1.57-.25,3.06-.51,4.63-.68a80.31,80.31,0,0,1,13.71-.69,30.4,30.4,0,0,1,3.93.17c1,.17,1.83.17,2.88.26-.17-.52-.61-.43-.87-.52a39.62,39.62,0,0,0-7.07-.77,81.79,81.79,0,0,0-14.5,1.2c-1.14.17-2.18.43-3.32.69a1.67,1.67,0,0,1-.17.26c.08,0,.17.08.26.08S64.94,178.47,65.11,178.47Zm.44,57v.09c-.09.17-.26.43-.35.6A5,5,0,0,1,65.55,235.5Zm0,0v0Zm9.69-57.2c3.15-.26,6.38-.17,9.61-.6-.26,0-.44-.09-.7-.09a71.9,71.9,0,0,0-8.56,0,70.51,70.51,0,0,0-8.38,1c-.44.08-.87.17-1.22.25-.09.09-.18.09-.18.18a.27.27,0,0,0,.09.17C69,178.9,72.1,178.56,75.24,178.3ZM94.8,235.16c0-.09-.08-.18-.08-.26a7.59,7.59,0,0,1-.88-.52c-3.75-1.8-7.59-3.52-11.52-5-1.58-.51-3.15-1.2-4.63-1.72-2.36-.86-4.72-1.72-7.08-2.49a.83.83,0,0,0-.78,0c-.09,0-.09.17-.09.26.18.34.61.43.87.6a62.39,62.39,0,0,0,6.64,2.58c4.45,1.55,8.82,3.18,13.19,5,1,.43,1.92.94,2.88,1.29a5.31,5.31,0,0,0,1.22.43C94.63,235.33,94.72,235.24,94.8,235.16ZM71.92,221.48l-.08.09.08.08Zm1.84,8.09.09.08Zm.17.08h0Zm1.75.6a.09.09,0,0,1,.09.09A.09.09,0,0,0,75.68,230.25Zm.17.09h0Zm2-20.38a22.9,22.9,0,0,0,5.07-2.84c.78-.61,1.57-1.21,2.36-1.81,1.65-1.2,3.4-2.41,5-3.78A42.89,42.89,0,0,0,95.94,196c1-1.2,2-2.32,3-3.53a4.68,4.68,0,0,0,.61-.77c.52-.95.52-1.29-.35-2.15a15.4,15.4,0,0,0-4.37-2.92c-1.13-.43-2.27-.78-3.4-1.21a10.83,10.83,0,0,0-4.37-.95c-.26,0-.7,0-.7-.17-.26-.43-.61-.43-1-.34-1.75.26-1.93.43-1.49,2.24a3.35,3.35,0,0,1-.09,1.89c-.35,1.12-.61,2.23-1,3.27-.09.17-.09.43,0,.43.17.17.26,0,.34-.18.27-.34.44-.77.7-1.11a.6.6,0,0,1,.53-.35.49.49,0,0,1,.26.69,5.82,5.82,0,0,1-.52,1.72,2.93,2.93,0,0,0-.53,1.38c-.09.77-.7,1.29-.7,1.89,0,.94-.7,1.38-1,2.06a2.16,2.16,0,0,1-.17,1.47,21.6,21.6,0,0,0-.88,2.06c-.43.86-.69,1.89-1.83,2.24l-.09.08c-.08.17-.26.43,0,.6.44.26.35.61.18.95-.53,1-1,2-1.57,2.92a6.55,6.55,0,0,0-.44,1.21.51.51,0,0,0,.61.6C77.69,210,77.77,210,77.86,210Zm.09-4a1.21,1.21,0,0,0,.17-.6c-.08.17-.26.34-.35.51a.12.12,0,0,0,0,.17C77.86,206.17,78,206.17,78,206Zm6.55,20.38h-.09a2.81,2.81,0,0,0-1.66-.68,2.33,2.33,0,0,0-1.66-.61,5.23,5.23,0,0,0-2.27-1.2c-.08,0-.17.09-.26.09s0,.25.09.25a6.26,6.26,0,0,0,2.44.86,3,3,0,0,0,1.66.61,3.09,3.09,0,0,0,1.66.68Zm9.6,2.76a4.9,4.9,0,0,0-1.48-.86c-2.18-1-4.45-2-6.64-2.93-1.83-.77-3.66-1.55-5.5-2.23a2.45,2.45,0,0,0-.78-.18c-.09,0-.27.09-.27.18a.16.16,0,0,0,.09.25,10.07,10.07,0,0,0,1.4.69c3.49,1.46,7,2.93,10.39,4.3a16.21,16.21,0,0,0,2.18.86A.44.44,0,0,0,94.1,229.14ZM81.62,194.47l-.09-.08a.18.18,0,0,0-.17.17l.08.08C81.53,194.56,81.53,194.47,81.62,194.47Zm6.81-11.95.09-.09c0-.09,0-.26-.09-.26a1.86,1.86,0,0,0-.87-.34c-1.49-.26-2.89-.43-4.2-.69-.43.09-.69.09-1,.17-.09,0-.18.17-.18.26a.31.31,0,0,0,.09.26c.17.08.35.08.44.17l5.23.52Zm-3.93,50.4c-.35-.09-.7-.26-1-.34h0a4.76,4.76,0,0,1,1,.34,5.28,5.28,0,0,0,2.1.77A3.37,3.37,0,0,0,84.5,232.92ZM86.16,227h-.09l.09.08c.17.09.44.17.61.26A2.34,2.34,0,0,1,86.16,227Zm1.92-9.47a1.37,1.37,0,0,1-.26.35h-.09A1.44,1.44,0,0,0,88.08,217.52Zm.7-.25c-.26.08-.44.17-.7.25C88.34,217.44,88.52,217.35,88.78,217.27Zm0-.35h.7a5.3,5.3,0,0,0-.7.26Zm.43,11.44h0Zm1.93-12.81c-.18.17-.27.25-.35.34C90.87,215.8,91,215.72,91.14,215.55Zm5.06,14.79-.09-.09c-.26-.08-.43-.17-.69-.25a4.76,4.76,0,0,1,.69.34Z"/><path d="M108.43,230.34a1.89,1.89,0,0,1-1.75-1.29,9.62,9.62,0,0,0-1.13-1.46,3.9,3.9,0,0,1-.88-4,36.69,36.69,0,0,1,2.19-6.11,15.55,15.55,0,0,0,.78-1.8,37.12,37.12,0,0,1,2.1-4.65c.87-1.72,1.66-3.44,2.44-5.24a47.16,47.16,0,0,1,2.62-5.08c1.14-2.15,2.27-4.39,3.32-6.54a48.36,48.36,0,0,1,3.06-5.07c.61-1.12,1.22-2.32,1.92-3.44a43,43,0,0,1,4.19-5.42c.79-.86,1.57-1.81,2.27-2.67a26.31,26.31,0,0,1,4.54-4.21A7.53,7.53,0,0,1,137,172a1.61,1.61,0,0,1,2,.78,4.39,4.39,0,0,0,1,1.2,4.06,4.06,0,0,1,1.4,2.32,2.2,2.2,0,0,0,.78,1.38,3.76,3.76,0,0,1,1.14,2.15,21.26,21.26,0,0,0,.7,2.67,18.5,18.5,0,0,1,.26,3.78c-.18,2.93-.35,5.94-.61,8.95-.09.68-.26,1.37-.35,2.06-.35,2.93-1,5.68-1.14,8.6-.08,1.46-.35,2.93-.52,4.39a23.06,23.06,0,0,0-.44,4.82,1.77,1.77,0,0,1-.08.68c-.44,1.64-.35,3.36-.62,5a40.6,40.6,0,0,0-.43,5.77v.77a2.43,2.43,0,0,1-1.31,2.15,4.81,4.81,0,0,1-1.14.69c-.26.17-.7.26-.87-.09a1.24,1.24,0,0,0-1.31-.77,1.44,1.44,0,0,1-1.4-.78,6.36,6.36,0,0,1-.7-1.29,7.2,7.2,0,0,0-1-1.54,6.31,6.31,0,0,1-1.48-3.88c0-1.29-.09-2.49-.09-3.78-.09-2.24-.35-2.49-2.53-1.89-1,.26-1.84.43-2.8.69a1.1,1.1,0,0,0-1,.08,6.72,6.72,0,0,1-2.19.52c-1.31.08-2.62.26-3.93.34a4.43,4.43,0,0,0-1.48.35.77.77,0,0,0-.79.43,13.91,13.91,0,0,0-.78,1.2c-.09.17-.18.43,0,.6.52.43.26.78-.09.95a2.19,2.19,0,0,0-1.31,1.72c-.09.26-.18.43-.26.69h-.09a2.81,2.81,0,0,0,.35-.69l.7-.26a10.29,10.29,0,0,1-1.31,2.58H113l-.09.09.09-.09h.35a4,4,0,0,1-.7,1.64l-.18-.18h-.17a.35.35,0,0,0,.35.18,4.1,4.1,0,0,1-.35.86,3.35,3.35,0,0,0-.79,1.8,1.52,1.52,0,0,1-2.18,1C109,230.6,108.69,230.34,108.43,230.34Zm6.2-7.65v0Zm1.66-3.27a1.91,1.91,0,0,1,.35-.61,4.41,4.41,0,0,0-.35.69Zm0,0v0Zm.61-1.29H117a2.21,2.21,0,0,0-.35.68C116.72,218.56,116.81,218.38,116.9,218.13Zm13.27-11.7a1.09,1.09,0,0,0,1-1,12.9,12.9,0,0,0,.44-2.58c.17-2.32.35-4.64.7-7a3.39,3.39,0,0,0-.35-2.58c-.18-.17-.09-.51,0-.77,0-.09-.09-.17-.09-.26h-.26c-.52.78-1,1.46-1.57,2.15-.09.09,0,.17,0,.35h.26c.17-.09.35-.18.44,0,.08,0,.08.17,0,.25-.62,1-1.14,1.9-1.75,2.76a6.46,6.46,0,0,1-.7.69c.26-.78.61-1.55,1-2.33v.09a10.71,10.71,0,0,0-3,4.56,12.79,12.79,0,0,0-2.62,4.21,2.83,2.83,0,0,0-.78,1.29c0,.17.08.26.35.26a1.79,1.79,0,0,1,.43-.26,1.85,1.85,0,0,0,1.92.69C127.12,206.86,128.6,206.6,130.17,206.43Zm-3-5.76c.44-.69.7-1.47,1-2.15-.35.43-.7.77-1,1.2a3,3,0,0,1-1,1.12,7.9,7.9,0,0,1-2.7,4.21,2.45,2.45,0,0,1,.34.69A38.44,38.44,0,0,0,127.2,200.67Zm-3.32,5.07a4.76,4.76,0,0,1-.34.69A4.76,4.76,0,0,0,123.88,205.74Zm1.75,11.1h0Zm10-40.52a1.08,1.08,0,0,1,.26-.34c.17-.09.26-.26.35-.34h0l-.35.34a1.32,1.32,0,0,1-.35.26,1.29,1.29,0,0,1-.26.34A1.21,1.21,0,0,1,135.59,176.32Zm2.88,52.21c-.09-.08-.18-.17-.26-.08s-.27.17-.27.34c.09,0,.18.09.27.09S138.47,228.71,138.47,228.53Zm-.26-54.87-.09.08Z"/><path d="M179.25,240v-.51a.82.82,0,0,0-.26-.09,1.05,1.05,0,0,0-.7.35c-.7.6-1,.51-1.66-.18,0-.08-.09-.08-.09-.17-.61-1.89-2.53-2.92-3.58-4.64a.74.74,0,0,0-1-.35,1.05,1.05,0,0,1-1.23-.17,13.44,13.44,0,0,1-1.48-1.63,9.1,9.1,0,0,0-1.92-2.15,5.34,5.34,0,0,1-1.58-3.36c-.43-3.7-.87-7.31-1.22-11-.17-1.8-.17-3.61-.26-5.42v-.77a.48.48,0,0,0-.35-.52.57.57,0,0,0-.52.35,8.13,8.13,0,0,0-.79,1.46,81,81,0,0,0-4,9.8,9,9,0,0,1-1.31,2.84c0-.34.27-.86,0-.94-.52-.17-.52.43-.61.68a23.59,23.59,0,0,0-.78,2.33c0,.08.08.17.17.26s.18,0,.18-.09a7.56,7.56,0,0,1,.43-.69c.18-.51.44-1,.61-1.63a8.4,8.4,0,0,1-.61,2.49,2.76,2.76,0,0,1-.78,1.38,1.56,1.56,0,0,0-.61,1.12.27.27,0,0,1-.09.17.31.31,0,0,0,.09-.26c.34.09.52.26.52.6-.18.78-.35,1.46-.61,2.24-.18.51-.35.08-.44-.17s-.35-.18-.43,0a9.41,9.41,0,0,0-1,.94.9.9,0,0,1-.78.43.66.66,0,0,1-.44-.17c-.09,0-.17-.17-.17-.26,0-.34,0-.86-.35-1-.53-.26-.7.34-1,.52a.7.7,0,0,1-.88.08,2.65,2.65,0,0,1-1.48-1.72,2.31,2.31,0,0,0-1.31-1.55,3.07,3.07,0,0,1-1.57-2.32,7.26,7.26,0,0,1,.17-3.61c.7-2.15,1.4-4.39,2.1-6.54,0-.08.09-.08.09-.17,1-4.21,2.88-8.26,3.84-12.47,1.31-3.18,2.09-6.54,3.84-9.55a3.21,3.21,0,0,0,.35-1.29,14.52,14.52,0,0,1,.87-2.58c.53-1.12,1-2.24,1.4-3.35a16.37,16.37,0,0,1,1.14-2.16c.69-1.2,1.31-2.4,1.92-3.61a22.51,22.51,0,0,1,1.48-2.41,2.9,2.9,0,0,1,3.32-1.46,4.63,4.63,0,0,1,1.13.17c.44.18.88.43.79.95s.18.6.61.69a.41.41,0,0,1,.26.17,3.9,3.9,0,0,1,2.62,2.92,3.77,3.77,0,0,0,.79,1.21,4.42,4.42,0,0,1,1,2,9.78,9.78,0,0,0,1,2.41,11.27,11.27,0,0,1,1,3.35,31.36,31.36,0,0,1,.61,5,63.73,63.73,0,0,0,.26,8.17,19,19,0,0,1,.09,5,6.06,6.06,0,0,0,.09,1.8,17.38,17.38,0,0,1-.27,4.74c.79-.18,1-.26,1.23-.78a23.1,23.1,0,0,0,.61-2.23,19.66,19.66,0,0,1,.87-3.1,9.28,9.28,0,0,0,.7-2.24,24.2,24.2,0,0,1,1.66-5.42c.26-.68.44-1.46.7-2.23a17,17,0,0,1,1.22-3.53,10,10,0,0,0,.61-1.72c.79-2.49,1.84-4.82,2.88-7.31a2.81,2.81,0,0,1,.35-.69c1.31-2.06,2.62-4.21,3.85-6.28a14.6,14.6,0,0,1,3.4-3.52,2.68,2.68,0,0,1,2.88-.26c.53.26.7.51.53,1.29-.18.6-.18.6.52.51a.8.8,0,0,1,.61.18,1.07,1.07,0,0,0,.44.43,1.77,1.77,0,0,1,1,2.15,12.2,12.2,0,0,0-.18,1.8c-.09.35-.43.86.09,1,.35.09.35-.51.52-.68s.27-.18.27-.09.17.17.17.26a18.9,18.9,0,0,0-.61,3,4.2,4.2,0,0,1-.7,1.12,2.29,2.29,0,0,0-.52,1.46,7.18,7.18,0,0,1-1.49,4c-1,1.46-1.57,3-2.36,4.47-.35.77-.69,1.55-1,2.24a10.92,10.92,0,0,0-1.14,3.26,32.42,32.42,0,0,1-1.48,3.62,4.73,4.73,0,0,0-.44,1.2c-.09.09.09.17.09.26.08-.09.26-.09.26-.17.26-.43.52-1,.78-1.47.18-.25.27-.51.53-.86,0,.26,0-.08.09.09,0,0,.08.09,0,.09a8.19,8.19,0,0,1-.44,1.29c-.35.94-.79,2-1.22,3a.87.87,0,0,0-1,.51c-.35.69-.61,1.38-.88,2.07a67.48,67.48,0,0,0-2.44,7.05c-.44,1.55-.88,3.1-1.4,4.65a2.32,2.32,0,0,0,0,1.11,2.58,2.58,0,0,0-.26,1.81,3.88,3.88,0,0,1-1.05,3.44c-.17.17-.44.26-.44.43-.17,1.2-.78,2.24-.52,3.44-.09.34-.17.69-.26.95a2.15,2.15,0,0,0-.26,2.06v.6c0,.35-.09.69-.53.78-.61.17-1,.69-1.4,1.12a7.13,7.13,0,0,1-.78.77.57.57,0,0,1-.79.09C179,240.4,179.16,240.15,179.25,240Zm-21.39-18.92c.08-.17.08-.26.17-.43l-.17-.17s-.09,0-.09.08a.65.65,0,0,0-.18.43c-.08.09,0,.18.09.26C157.68,221.14,157.86,221.14,157.86,221.05Zm1-2.58c.35-.86.7-1.63,1-2.41a54.33,54.33,0,0,1,2.71-6.62,9.23,9.23,0,0,0,.61-1.38c0-.17,0-.34-.17-.34s-.18.08-.27.17a20,20,0,0,0-1.48,3c-.26.78-.61,1.46-.87,2.15-.7,1.72-1.31,3.44-1.93,5-.08.34-.08.52.09.52S158.9,218.56,158.9,218.47Zm15.64-.95-.09.09Zm10.12,11.1a.7.7,0,0,1-.08-.26.42.42,0,0,1-.26.09,1.36,1.36,0,0,0-.18.43c0,.17.09.26.18.17A4.65,4.65,0,0,0,184.66,228.62Zm1.66-5.08c-.08.87-.08.87-.87,1.55A12.64,12.64,0,0,0,186.32,223.54Zm1.14-3.78h.17c0,.09,0,.17-.08.17h-.09Zm1.4-4a.27.27,0,0,1-.09.17A.27.27,0,0,0,188.86,215.72Zm-.09.17v0Zm1.13-3.18c.09-.17.18-.26.27-.43h-.09a.63.63,0,0,1-.09.43c0,.08-.09.17-.17.26C189.9,212.88,189.82,212.79,189.9,212.71Zm.88-2a2.53,2.53,0,0,1-.61,1.38A3.11,3.11,0,0,1,190.78,210.73Zm.35-1a5.45,5.45,0,0,1-.35,1C190.86,210.38,191,210,191.13,209.7Zm2.7-7.49a4.78,4.78,0,0,0-.35.95A3.34,3.34,0,0,1,193.83,202.21Zm-.08,0,2.35-5.59a2.45,2.45,0,0,1-.34.69A4.93,4.93,0,0,1,196.1,196.62Zm.35-.69c-.08.26-.26.43-.35.69A2.81,2.81,0,0,1,196.45,195.93Zm.7-1.63a2.77,2.77,0,0,1-.7,1.63A2.53,2.53,0,0,1,197.15,194.3Zm0,0h0Zm0-15.31"/><path d="M199.77,231.8c-.17-.6-.43-.77-1-.77a1.32,1.32,0,0,1-1.22-.86,2.43,2.43,0,0,1-.17-.78,4.89,4.89,0,0,0-1.49-2.58,4.58,4.58,0,0,1-.7-1.46c-.43-1.63-1-3.35-1.48-5a8,8,0,0,1-.53-2.75c.09-1,.7-1.2,1.66-.77.09.08.18.08.27.17,1.13.86,1.48.77,1.83-.52,1-3,2-6,2.88-9.12,1-2.75,2-5.33,3.06-8a30.56,30.56,0,0,1,1-2.93,59.43,59.43,0,0,1,2.89-6.36c.43-.69.26-1.64.52-2.41.09-.26-.09-.35-.35-.43a3,3,0,0,1-.78-.35.94.94,0,0,1-.53-.86c0-.34.09-.6.44-.69s.52-.08.87-.17a40.86,40.86,0,0,1,7.34-.6,13.72,13.72,0,0,0,1.92-.09.89.89,0,0,0,.26-.08.32.32,0,0,0-.35-.35,6.68,6.68,0,0,0-2.53-.17c-1.31.09-2.62.17-3.93.35-.87.08-1.84.17-2.71.34a13.66,13.66,0,0,1,5.07-.86,59.51,59.51,0,0,1,6.81,0c.17,0,.43.09.61-.09a1.23,1.23,0,0,0-.79-.43,23.81,23.81,0,0,0-7-.25,52.37,52.37,0,0,0-5.42.94c-.35.09-.61.17-.87-.17-.26-.17-.18-.6.09-.95a2.61,2.61,0,0,1,1.48-1,17,17,0,0,1,4.63-1.12.73.73,0,0,0,.44-.08c2.35-.69,4.8-.17,7.24-.09a8.88,8.88,0,0,1,3.93,1.46,19.24,19.24,0,0,1,5.07,4.82,28.65,28.65,0,0,1,4.1,8.34,32.78,32.78,0,0,1,1.49,5.34,26.82,26.82,0,0,1,.61,6.36,11.73,11.73,0,0,1-1,4.91,3.4,3.4,0,0,1-.61,1c-.09.26-.35.6-.44.94a3.86,3.86,0,0,1-2.1,2.58c-.08-.08-.17-.34-.34-.25s-.53.17-.62.34a33.1,33.1,0,0,1-3.14,2.15,8,8,0,0,0-1.4,1,34.36,34.36,0,0,1-5.5,3.7,55.32,55.32,0,0,1-12.75,5.85c-.26.09-.61.09-.52.52a7.26,7.26,0,0,0,1.4-.26,30.77,30.77,0,0,0,5.58-2,60,60,0,0,0,10.05-5.68c2.09-1.63,4.63-2.92,6.55-4.9a3.17,3.17,0,0,1,.78-.52,3.27,3.27,0,0,1-.87,1.29c-.53.43-1,.86-1.49,1.21-1.57,1-3.05,2.06-4.54,3.18a32.83,32.83,0,0,1-5,3.27,65.48,65.48,0,0,1-5.94,2.92,25.9,25.9,0,0,1-8.3,2.15,2.06,2.06,0,0,0-1.57.69,4.29,4.29,0,0,1-2.18,1.21C200.3,232.23,200,232.23,199.77,231.8Zm5.77-3.87a17.29,17.29,0,0,0,3.58-1.12c1.83-.86,3.84-1.8,5.67-2.75a12.64,12.64,0,0,0,2.8-1.89c.17-.09.35-.26.52-.35-.17.09-.35.26-.52.35a2.27,2.27,0,0,0-1.49.26,40.35,40.35,0,0,1-8.73,3.95,16.36,16.36,0,0,0-1.83.61,3,3,0,0,0-1,.34.38.38,0,0,0-.18.52,1.37,1.37,0,0,0,.53.17A1.46,1.46,0,0,0,205.54,227.93Zm-1,2-.09-.09v.09Zm1.66-45.33h.61a4.27,4.27,0,0,1-.61.17h-.09C206.06,184.67,206.06,184.58,206.24,184.58Zm.69,37.93c.18,0,.35-.08.53-.08s.09-.18.17-.26h-.26c-.17.08-.26.26-.44.34s-.35.09-.52.09l-.09.09c0,.17.09.25.18.17A1.8,1.8,0,0,0,206.93,222.51Zm.7-1.55a.31.31,0,0,1,.09-.17,1.67,1.67,0,0,0-.26-.17,1.89,1.89,0,0,0-.44.26c-.17,0-.17.17,0,.26a.3.3,0,0,1,.18.08C207.37,221.14,207.46,221.05,207.63,221Zm3.58-6.53a4.35,4.35,0,0,1,1.84-1.21,7.83,7.83,0,0,0,2.62-1.54,13.23,13.23,0,0,1,1.31-1.12,11.67,11.67,0,0,0,3.14-3,25.14,25.14,0,0,1,2.53-2.76,6.87,6.87,0,0,0,1-1.29c1-1.37,1.75-2.83,2.62-4.3.18-.43.35-.86.53-1.2a2.48,2.48,0,0,0-.18-2.07,9.2,9.2,0,0,0-3.66-4c-1.84-1-3.76-2.15-5.86-2a2.31,2.31,0,0,1-.69-.08c-.44,0-.88-.09-1.31-.09-.79-.08-1.05.26-1,1,.09.52.18,1,.27,1.47a6,6,0,0,0,.87,3.09,1.19,1.19,0,0,1,.17.95,11.15,11.15,0,0,1-.78,2.84c-.35,1.55-1.05,3-1.57,4.64a24.93,24.93,0,0,1-2.45,5.33c-.17.09-.26.18-.26.35h.35a7.32,7.32,0,0,1-.7,1.72c-.44,1.12-.79,2.24-1.13,3.44a.54.54,0,0,0,.61.6A3.94,3.94,0,0,0,211.21,214.43Zm-.61-5.34a.63.63,0,0,0,.09.35A.63.63,0,0,1,210.6,209.09Zm7.6-21.15-.26-.26a17.26,17.26,0,0,0-3.41-.52h-.7c-.35,0-.78-.08-.78.35s.43.34.78.43a18.55,18.55,0,0,0,2.19.17,15.41,15.41,0,0,0,1.92.08C218.11,188.19,218.29,188.11,218.2,187.94Zm-3.49,29.67a1.66,1.66,0,0,1,.69-.34,2.45,2.45,0,0,0-.69.34,2.06,2.06,0,0,0-.88.43s-.08.09,0,.09a.3.3,0,0,0,.18.08A1.53,1.53,0,0,0,214.71,217.61Zm-.88-20,5,16.95a2.21,2.21,0,0,0-1.66,1.38h-.09A2.41,2.41,0,0,0,218.81,214.6Z"/><path d="M245.8,231.29a8,8,0,0,1-1.93-1.47,47.46,47.46,0,0,1-5-6.1,21.82,21.82,0,0,1-2.36-6.11c-.18-.77-.26-1.46-.44-2.24a10.4,10.4,0,0,1-.08-3.69c.26-1.64.52-3.19.69-4.74a21.14,21.14,0,0,1,1.92-6.53c.79-1.72,1.31-3.44,2.19-5.16a45.28,45.28,0,0,1,3.14-5.16,5.18,5.18,0,0,0,.44-.69,41.18,41.18,0,0,1,5-7.31c.26-.43.69-.69,1-1.12a16.63,16.63,0,0,0,1.74-1.72,24.81,24.81,0,0,1,5.94-4.9,13.61,13.61,0,0,1,3.58-1.29,1.77,1.77,0,0,1,2.18,1.11,5.52,5.52,0,0,0-4,2v-.08a9.91,9.91,0,0,0,3.93-1.9,7.92,7.92,0,0,0,2.44.35,7.87,7.87,0,0,1,6.2,2.58,37.51,37.51,0,0,1,3.15,3.44,18.92,18.92,0,0,1,3.84,8.51,29.13,29.13,0,0,1,.09,9.9,22.45,22.45,0,0,1-.7,4.12.65.65,0,0,0-.09.35c0,2.32-1.05,4.3-1.92,6.36-.26-.17-.52-.17-.61.18-.09,0,0,.17,0,.25s.09,0,.09-.08c.17-.09.34-.26.52-.35a22.72,22.72,0,0,1-2.45,5.85c-1,1.81-2.18,3.61-3.4,5.33a43.51,43.51,0,0,1-5.07,6.2,28.72,28.72,0,0,1-5.15,4,13.16,13.16,0,0,0-1.22.52,1.25,1.25,0,0,0-1.31.25,8.83,8.83,0,0,1-5.5,1.29A13.77,13.77,0,0,1,245.8,231.29Zm6.63-10.24c1-.86,1.92-1.63,2.88-2.49a33.71,33.71,0,0,0,4.28-5,27.15,27.15,0,0,0,3-4.13c.7-1.12,1.31-2.24,2.1-3.36a36,36,0,0,0,2.88-5.07,44.33,44.33,0,0,0,1.75-4.22,26.1,26.1,0,0,0,2.09-12.3,8.12,8.12,0,0,0-.17-1.46c-.18-.6-.53-.86-1.14-.69s-1.22.26-1.92.35a6.76,6.76,0,0,0-3.14,1,5.77,5.77,0,0,1-1.66.69.3.3,0,0,1-.26-.09c0-.08,0-.26.08-.26,1.05-.68,2.1-1.37,3.23-2.06a2.67,2.67,0,0,0,1.05-.69c.09-.08,0-.26,0-.34a.27.27,0,0,0-.17-.09,3,3,0,0,0-.79.26,16.87,16.87,0,0,0-2.71,1.46,9.7,9.7,0,0,0-3.84,3.62c-.52.86-1.22,1.72-1.83,2.66-.09-.17,0-.34-.09-.51s-.44,0-.52.17a9.2,9.2,0,0,0-1.75,3.61,2.47,2.47,0,0,0-.52.43c-.44.43-.61.95-.35.86a1,1,0,0,0,.61-.69,4,4,0,0,1,.26-.6,10,10,0,0,0,1-1,62.61,62.61,0,0,1-3.23,6.45,8,8,0,0,1-1.22,1.72,2.24,2.24,0,0,0-.88,1.12c0,.17-.08.43,0,.51s.27-.08.44-.25a.3.3,0,0,0,.26-.09c0,.09.09.26.09.34a8.36,8.36,0,0,1-1,2c-.17.09-.43.09-.61.26a.65.65,0,0,0-.17.43c0,.26.26.26.43.34a4.92,4.92,0,0,1-.7,1.9c-.08,0-.08-.26-.26,0h.35a11.55,11.55,0,0,0-.35,1.63,54.36,54.36,0,0,0-2,14.45c-.08.09-.26.17-.35.34a.72.72,0,0,1,.35-.34c.09.09.27.09.44.26a1.47,1.47,0,0,0,1.92.17A11.34,11.34,0,0,0,252.43,221.05Zm-2.79-32.43a.08.08,0,0,0,.09-.08c-.09-.09-.09-.09-.18.08a.32.32,0,0,0-.09.26C249.55,188.8,249.55,188.71,249.64,188.62Zm1.74-2.75a.93.93,0,0,0,.35-.26,2.25,2.25,0,0,0,.35-.69l.35-.34.35-.34v.08c-.09.09-.26.17-.35.26a1.23,1.23,0,0,1-.35.34,2.25,2.25,0,0,1-.35.69,1.58,1.58,0,0,0-.26.35.6.6,0,1,1-.09-.09Zm-.26,17c-.08.35-.26.69-.35,1C250.86,203.59,251,203.25,251.12,202.9Zm3-7.83v0c-.52.61-.78,1.12-.52,1S254,195.42,254.09,195.07Zm.61,29.42a15,15,0,0,0,6-5.85,2.5,2.5,0,0,1,.35-.69c-.09.26-.26.43-.35.69-.09.09-.18.09-.26.17-2.19,1.55-4,3.53-6,5.25-.17.09-.17.26-.09.43Zm1.4-44.12c.09-.09.17-.26.35-.35a1.11,1.11,0,0,0,.26-.34.67.67,0,0,0,.35-.35,1.17,1.17,0,0,0,.35-.25c.09-.18.26-.26.35-.35-.09.09-.26.17-.35.35s-.26.17-.35.25a.67.67,0,0,1-.35.35c-.09.08-.17.26-.26.34a.67.67,0,0,0-.35.35.68.68,0,0,0-.35.34A1.23,1.23,0,0,1,256.1,180.37Zm1,44.12a13.9,13.9,0,0,0,3.58-3.18,4.42,4.42,0,0,0,.79-1.38,35.1,35.1,0,0,0-4.63,4.13c-.18.17-.26.35-.09.43S257,224.49,257.06,224.49Zm.26-34.83a1.71,1.71,0,0,1,.79-.78,2.25,2.25,0,0,1-.61,1h-.09A.27.27,0,0,1,257.32,189.66Zm2,39.22a11.08,11.08,0,0,0,3.06-2.24,82.68,82.68,0,0,0,6.11-7.31.39.39,0,0,0,0-.52c-.09.09-.26.18-.35.26-.78.78-1.66,1.55-2.36,2.32a46,46,0,0,1-6.55,6.46c-.26.25-.61.51-.7.86-.08.08,0,.17.09.25a.09.09,0,0,0,.09.09C259,229,259.16,229,259.33,228.88Zm0-42.41a2.45,2.45,0,0,0,.35-.68c.09-.09,0-.18-.09-.26h-.08l-.62.6c-.17.26-.17.6,0,.6A1.59,1.59,0,0,0,259.33,186.47ZM262.56,229v.09c-.09,0-.17,0-.17.09Zm1.84-1.37a5.1,5.1,0,0,0,.78-.6c1.14-1.29,2.27-2.58,3.41-4a42.22,42.22,0,0,0,4.54-6.54,5.07,5.07,0,0,0,.87-2.15,2.34,2.34,0,0,0,.7-1.29,2,2,0,0,0-.7,1.38,16.2,16.2,0,0,0-2.53,3.35,18.31,18.31,0,0,1-1.83,2.67c-1.4,2-3,3.7-4.46,5.5a4,4,0,0,0-1.05,1.38c-.08.09.09.17.09.26S264.4,227.67,264.4,227.59Zm2.53-16.52a1.72,1.72,0,0,0-.53,1C266.58,211.76,267.1,211.59,266.93,211.07Zm1.31-2.32a.31.31,0,0,0,.09-.26,2.45,2.45,0,0,0,.34-.69h.09l-.09.09c-.08.17-.17.43-.26.6a.41.41,0,0,1-.26.17c0,.09-.09.09-.09.18S268.24,208.92,268.24,208.75Zm8.82-4.3c.35-.6.17-1.2.26-1.81.09-.08.18-.17.18-.25a.33.33,0,0,1,.08-.18c-.08-.08-.17,0-.17.09a.48.48,0,0,1-.09.34,6.16,6.16,0,0,0-.7,1.72c0,.09.09.26.18.26A1.13,1.13,0,0,0,277.06,204.45Z"/><path d="M296,206.86l-11.44-.26a3,3,0,0,1-1.48-.34,1.57,1.57,0,0,1-.7-1.55,1.27,1.27,0,0,1,1.13-1c.35,0,.7-.09,1.05-.09,3.93.17,7.95.26,11.88.43,4.8.17,9.6.34,14.41.6,1.83.09,3.66.17,5.41.43.35,0,.61.09.87.09,1,.17,1.4.6,1.57,1.8,0,.35-.17.69-.52.69a7.32,7.32,0,0,1-1.4.09C309.9,206.94,302.91,207,296,206.86Zm18.6-3.79c-1.92-.17-3.75-.25-5.68-.34-5.06-.26-10.13-.52-15.19-.69-3.14-.08-6.29-.26-9.43-.08-.44,0-.87,0-1.14-.43s0-1,.61-1.38a4.1,4.1,0,0,1,2.19-.69,28.15,28.15,0,0,1,6.55.09,7.14,7.14,0,0,0,2.35.08,36.72,36.72,0,0,1,5.24.26,26.75,26.75,0,0,0,3.67.26,37.15,37.15,0,0,1,5.33.26,19.91,19.91,0,0,0,3.93.17,10.1,10.1,0,0,1,2.18.26,3.14,3.14,0,0,1,2.53,1.72c.27.51,0,.94-.52.86C316.36,203.33,315.48,203.16,314.61,203.07Zm-28.29,0h-2.27c-.27,0-.44-.08-.61-.08s-.09-.09-.09-.17,0-.09.09-.18.43-.17.61-.17c3.4.35,6.81.26,10.21.43,5.51.26,10.92.43,16.42.69a29.74,29.74,0,0,1,6.2.69C306.75,203.5,296.53,203.33,286.32,203.07Zm13.79,5.77c-4.36-.09-8.64-.09-12.92-.18-.7,0-1.31-.08-2-.08a5.69,5.69,0,0,1-1.05-.52c-.08,0-.17-.26-.26-.34s.18-.26.35-.35h.7a60.43,60.43,0,0,0,8.91.43c5.76.09,11.52.09,17.2.43,1.75.09,3.49.18,5.15.35a6.61,6.61,0,0,1,1.31.26c.09.08.18.17.18.25s-.09.18-.18.26a3.41,3.41,0,0,1-1.31.09C310.77,209,305.44,208.92,300.11,208.84Zm-7.42.6a.3.3,0,0,1,.18.08.19.19,0,0,1-.18.18h-.52C292.08,209.61,292.34,209.44,292.69,209.44Zm2.8.17h.26c-.09,0-.18.09-.26.09h-.18C295.22,209.61,295.31,209.61,295.49,209.61Zm.69,0h0Zm3.41,0a6.55,6.55,0,0,1,2.62.09A6.86,6.86,0,0,1,299.59,209.61Zm3.84,0a1.7,1.7,0,0,1-1.31,0l.09.09A5.22,5.22,0,0,1,303.43,209.61Zm6,.09.09.08h-.18Z"/><path d="M321.51,241.52a9.66,9.66,0,0,1-3.49-4.81c-.35-1.21-.61-2.41-1-3.7a1.7,1.7,0,0,1,0-.95c0-.86.52-1.12,1.31-.77.08,0,.17.08.26.17a8.75,8.75,0,0,0,5.24,1.12,18.49,18.49,0,0,1,3.06-.18,8.35,8.35,0,0,0,2.35-.68c.79-.26,1.66-.61,2.54-.86a34.72,34.72,0,0,0,7-3.27,22.46,22.46,0,0,1,2-1.12,8.19,8.19,0,0,0,2.36-1.46,2,2,0,0,1,.7-.52,19,19,0,0,0,4.89-3.35c1.39-1.29,2.79-2.58,4.1-4,1.75-2.06,1-2.32-1-2.75a28.55,28.55,0,0,0-5.41-.6,37.62,37.62,0,0,0-4.46.52c-1,.17-1.83.34-2.79.43a17.19,17.19,0,0,1-3.58.17c-2.62,0-2.71-.17-3.58,2.41-.53,1.63-1.05,3.18-1.57,4.81.08,1.21-1.84,1.38-1.31,2.76.34,1.11-.27,2.15-.44,3.18a3.47,3.47,0,0,1-.18.94,1.32,1.32,0,0,1-.43.86,7.65,7.65,0,0,1-2.53,1.55c-.27.17-.53,0-.53-.34-.09-.09,0-.26,0-.35a.45.45,0,0,0-.52-.51,3.08,3.08,0,0,0-1.23.17c-.78.34-1.13.26-1.57-.43a15,15,0,0,1-.78-1.81,2.69,2.69,0,0,0-1.31-1.72,3.66,3.66,0,0,1-1.92-3.09,8,8,0,0,1,.35-4.56,11.79,11.79,0,0,0,.87-2.93,13.13,13.13,0,0,1,1-3c.87-2.41,1.83-4.73,2.71-7.14.26-.77.43-1.46.69-2.23.18-.35.27-.78.44-1.21,1.4-3.26,2.8-6.53,4.28-9.72.35-.77.7-1.46,1.14-2.23,1-2,1.92-3.87,3.05-5.77.61-.86,1.31-1.72,2-2.58a2.7,2.7,0,0,0,.7-1.8.33.33,0,0,0-.44-.35,8.22,8.22,0,0,0-1.31.35c-.35.08-.7.08-1.13.17a.55.55,0,0,1-.7-.17c-.09-.35.17-.52.44-.6l.78-.26a63.8,63.8,0,0,1,14.93-3.61c1.4-.18,2.8-.26,4.2-.43l.17-.18c0-.08-.09-.25-.17-.25a8.29,8.29,0,0,0-2.1-.18,42.85,42.85,0,0,0-11,1.64,51.81,51.81,0,0,0-7.08,2.41,5.48,5.48,0,0,1-1,.34c-1.23.17-2-.69-1.66-1.72a1.2,1.2,0,0,0-.18-1.2,2.49,2.49,0,0,1,.26-3.62,7.47,7.47,0,0,1,2-1.37,69.35,69.35,0,0,1,8.3-3.44c1.48-.52,3.05-1,4.54-1.47a14.7,14.7,0,0,1,1.83-.34,62.9,62.9,0,0,1,8-.34,15.07,15.07,0,0,1,4.45.68,12.45,12.45,0,0,1,7.42,6.46,40.08,40.08,0,0,1,3.15,8.94c.35,1.29.17,2.58.52,3.87.52,1.89-.26,3.53-.61,5.25a2.33,2.33,0,0,1-.79,1,10.69,10.69,0,0,1-1,.95c-.08.17-.17.34.09.43a1.49,1.49,0,0,0,.44-.18,4.88,4.88,0,0,1-1.31,2c-.09-.6-.26-.77-.61-.43a4.22,4.22,0,0,0-.88.86.33.33,0,0,0,0,.52c.18.08.26,0,.44,0a12.1,12.1,0,0,1-4.28,4.56.63.63,0,0,0-1-.17,2.75,2.75,0,0,0-.79.6,8.41,8.41,0,0,1-2,1.89l-.7.69v.26c.08.08.26.17.35.08a5.48,5.48,0,0,0,1.74-1.37,5.32,5.32,0,0,1,2-1.64,9.28,9.28,0,0,1-1.83,2.32,16.26,16.26,0,0,1-1.23,1.29.94.94,0,0,0,0,.95,11.88,11.88,0,0,0,.88.95,10.14,10.14,0,0,1,2.18,3.26,37.67,37.67,0,0,1,2.62,7.06,9.61,9.61,0,0,1,.26,5.24c-.08.52-.08.87.35,1.21a1.43,1.43,0,0,1,.18,1.55,13.41,13.41,0,0,1-1.31,2.41,2.69,2.69,0,0,0-.7,1.29,2.79,2.79,0,0,1-1.75,2.23c0-.6-.17-.77-.52-.51-1.22.68-2.45,1.46-3.67,2.23a70.54,70.54,0,0,1-13.8,7.4,41.39,41.39,0,0,1-5.32,2.15,6,6,0,0,0-1.66.95,3.07,3.07,0,0,1-1.49.43,15.37,15.37,0,0,0-3.49.43,2.48,2.48,0,0,1-1.14.25C326.31,243.67,323.69,243.24,321.51,241.52Zm11.62-6.45a55.2,55.2,0,0,0,9.08-4.3c.43-.26.78-.6,1.22-.86.09-.09,0-.17,0-.26s-.17-.08-.26,0H343a61.24,61.24,0,0,1-13.45,5.51c-.69.17-1.39.51-2.18.77l-.09.09c.09.08.18.17.27.17s.26.08.43.08A26,26,0,0,0,333.13,235.07Zm-2.89-14a.27.27,0,0,0-.17-.09H330a.79.79,0,0,0-.35.69c0,.17.09.26.18.17A.89.89,0,0,0,330.24,221.05Zm.44,20.56a28.09,28.09,0,0,0,7.16-1.64,64.06,64.06,0,0,0,9.26-4.3,7.05,7.05,0,0,1,1.31-.69,36.8,36.8,0,0,0,3.84-2.58.18.18,0,0,0,.17-.17.49.49,0,0,0,.09-.34.42.42,0,0,0-.26-.09,26.48,26.48,0,0,0-2.71,1.38,89.83,89.83,0,0,1-12.4,5.68,26.44,26.44,0,0,1-5.24,1.54,12,12,0,0,0-1.57.52c-.09.09-.26.26-.17.43a1.79,1.79,0,0,0,.43.26Zm1.49-4.9a40.77,40.77,0,0,0,8.9-3.7,3.51,3.51,0,0,0,1.05-.86,6.45,6.45,0,0,0,.7-.35,2.86,2.86,0,0,1-.7.35,6.53,6.53,0,0,0-2.18.77c-1,.43-2,.86-3.06,1.29L331.82,236c-.44.17-1,.34-1.4.51-.09.09-.18.18-.18.26a.45.45,0,0,0,.27.17ZM332,174.26a54.32,54.32,0,0,1,8.91-3.18,62.5,62.5,0,0,1,8.9-1.64,6.44,6.44,0,0,0,1.31-.17c.09,0,.18-.17.18-.26s-.09-.17-.18-.17c-.43-.09-.87-.09-1.48-.17-1.22.17-2.62.26-3.93.43a49.13,49.13,0,0,0-13.1,4.13c-.52.25-1.13.69-1.66.94a1.17,1.17,0,0,0-.26.18c-.09.08-.09.25-.17.34.08,0,.17.09.26.09C331.2,174.6,331.64,174.43,332,174.26Zm-.35,1.29a1.33,1.33,0,0,0,.61-.17A58.42,58.42,0,0,1,347,171c.61-.09,1.22-.26,1.92-.43a1.13,1.13,0,0,0-.87-.17,15.51,15.51,0,0,0-3.5.34,53.64,53.64,0,0,0-12.05,3.87c-.34.18-.69.35-1,.52-.09.09-.27.26-.09.43C331.38,175.55,331.55,175.64,331.64,175.55Zm7.25,66.14c.78-.25,1.48-.43,2.27-.68a8.54,8.54,0,0,1-4.28,1.54A6.06,6.06,0,0,1,338.89,241.69Zm.26-37.33a1.54,1.54,0,0,0-1,.35c-.08,0-.08.17-.08.26s.17.08.26.08A1.33,1.33,0,0,0,339.15,204.36Zm1-7.48v0Zm.7,6.8c0-.09.09-.18.09-.26-.18-.17-.26-.09-.44,0s-.17.17-.09.26S340.64,203.76,340.81,203.68Zm.7-5.77c.26-.26.52-.43.78-.68a27.93,27.93,0,0,1,2.27-2.16,51.91,51.91,0,0,0,5.68-5,6,6,0,0,1,.79-.61,14.87,14.87,0,0,0,3.84-4.21c.87-1.21,1.66-2.58,2.62-3.79a8.88,8.88,0,0,0,.87-1.54.63.63,0,0,0-.26-.95,2.86,2.86,0,0,0-.79-.34c-1.92-.43-3.84-1.12-5.85-.86a11.5,11.5,0,0,1-1.66,0c-.26,0-.52,0-.61-.09a1.37,1.37,0,0,0-1.83-.17,1.61,1.61,0,0,1-.61.08.93.93,0,0,0-1.22.18,5.71,5.71,0,0,1-1.58.51,7.28,7.28,0,0,0-1.31.35c-.87.34-1,.77-.26,1.37a3.47,3.47,0,0,1,1.31,3.61,19.58,19.58,0,0,1-.52,2.07v.69a.08.08,0,0,0,.09.08h.08a5.92,5.92,0,0,0,.53-1,6.67,6.67,0,0,0,.35-.6l.17-.09c0,.09.17.17.09.26-.53,1.81-1.05,3.61-1.57,5.51a6.53,6.53,0,0,0-.53,1.89,11.41,11.41,0,0,1-1.22,4.13,2.79,2.79,0,0,0-.35.77c-.09.26-.09.43.09.6A.52.52,0,0,0,341.51,197.91Zm2.27,42.15V240a5,5,0,0,1-2.71,1A6.44,6.44,0,0,1,343.78,240.06Zm-1.31-52a.34.34,0,0,1,.26-.08c.09-.09.18-.18.09-.18s-.09,0-.18.09-.08.09-.17.17l-.26.26v.09C342.29,188.28,342.38,188.11,342.47,188Zm3,51.35a2.49,2.49,0,0,1-1.66.6v.09A4.11,4.11,0,0,1,345.44,239.37Zm.7-.34c-.27.08-.44.26-.7.34A4.59,4.59,0,0,1,346.14,239Zm.61-.35h.09a3.19,3.19,0,0,1-.79.35A1.78,1.78,0,0,0,346.75,238.68Zm1.66-.94a2.73,2.73,0,0,1-1.57.94A4.72,4.72,0,0,1,348.41,237.74Zm0-39a1.55,1.55,0,0,0,1.13-.69V198a.25.25,0,0,0-.17-.09,2.29,2.29,0,0,0-1,.86,1.37,1.37,0,0,1-.26.35A1.37,1.37,0,0,0,348.41,198.77Zm.7,38.62a5.69,5.69,0,0,1-.7.35C348.67,237.65,348.84,237.48,349.11,237.39Zm2-.94a3.35,3.35,0,0,1-2,.94A8.7,8.7,0,0,1,351.11,236.45Zm0-39.91a1.44,1.44,0,0,1,.35-.35c.09-.08.18-.26.35-.34a1.18,1.18,0,0,0,.27-.35.7.7,0,0,1-.35.35c-.09.08-.18.26-.27.34a.7.7,0,0,0-.35.35.63.63,0,0,0-.34.34C350.85,196.71,351,196.62,351.11,196.54Zm.62,39.56h.08a3,3,0,0,0-.78.35A4.52,4.52,0,0,1,351.73,236.1Zm.35-11.09c.08-.17.26-.26.34-.35l-.34.35c-.27.08-.7.08-.7.51C351.73,225.52,351.9,225.18,352.08,225Zm-.27,11.09a8.46,8.46,0,0,1,2.62-1.63c-.52,1.12-1.57,1.38-2.7,1.63Zm7.95-5.24a12.48,12.48,0,0,1-5.33,3.61A31.79,31.79,0,0,1,359.76,230.86Zm.35-.35-.35.35C359.85,230.77,359.93,230.6,360.11,230.51Zm.61-30.1a.65.65,0,0,1-.35.34A1.23,1.23,0,0,0,360.72,200.41Zm2.36-3.27a1.17,1.17,0,0,0,.26-.35l.09.09a.67.67,0,0,0-.35.35c-.18.08-.44.17-.61.25v.17c.08.09.17.18.26.09A4.88,4.88,0,0,1,363.08,197.14Zm.17,26.58v-.09l-.08.09Zm2.1-28.22a1.37,1.37,0,0,1-.26.35H365A.7.7,0,0,0,365.35,195.5Zm.7-.6c-.26.17-.44.43-.7.6C365.61,195.33,365.79,195.07,366.05,194.9Z"/><path d="M374.61,235.5a10.28,10.28,0,0,1-.44-1,.77.77,0,0,0-1.14-.26c-.34.17-.69.52-1.22.43a2.09,2.09,0,0,1-1.05-1.2,5.15,5.15,0,0,1-.34-1.64,2.6,2.6,0,0,0-1.23-2.06,3.79,3.79,0,0,1-1.39-2.5,8.53,8.53,0,0,1,.61-4.9,133.58,133.58,0,0,1,4.89-12.9c.52-1.12.78-2.32,1.31-3.44.35-.86.87-1.72,1.22-2.58.79-1.89,1.48-3.79,2.18-5.77a35.27,35.27,0,0,1,2.45-5.59c1.05-1.89,2-3.87,3-5.76a5.83,5.83,0,0,1,1-1.46,31.37,31.37,0,0,0,2.1-3.1,18.28,18.28,0,0,1,3.93-4.9,2.15,2.15,0,0,1,3.58.43,16.23,16.23,0,0,0,1.48,1.89,3.29,3.29,0,0,1,.7,2.32,3.13,3.13,0,0,0,.53,2.33,1.15,1.15,0,0,1,.17.77c-.09.52-.17,1-.26,1.46-.7,2.07-1.4,4.13-2,6.28a20.44,20.44,0,0,0-1.05,2.32v.69c-.35.43-.78.86-1.13,1.29a.43.43,0,0,0-.09.61c.35.25.26.51.18.85a22,22,0,0,1-1.58,3.19.18.18,0,0,0-.35,0,4.76,4.76,0,0,1-.34.69l-.27.25c-.08.09,0,.18-.08.26.08,0,.17-.08.26-.17a3.86,3.86,0,0,0,.09-.43,2,2,0,0,0,.34-.6H391a7.84,7.84,0,0,1-.87,2.41,17.66,17.66,0,0,0-.87,1.89,4.21,4.21,0,0,1-1.49,2.15,2.58,2.58,0,0,0-.78,1.12c0,.08-.09.34.08.43s.35-.09.44-.09.09-.09.18-.09a2.73,2.73,0,0,1-.79,1.38,1.56,1.56,0,0,0-.7,1.38,1,1,0,0,1-.44,1.2c-.52.26-.52.52-.34,1a.81.81,0,0,1-.27,1c-.7.43-.61,1-.61,1.72-.09.17-.17.25-.17.43-.35.43-.79.86-.61,1.54.17.52-.27.95-.53,1.38s-.61.77-.52,1.29a3.58,3.58,0,0,1-.53.6c-.17.26-.08.35.18.43a27.64,27.64,0,0,1-1.4,4.56,10.54,10.54,0,0,1-1.22,2.67v-.09c-.18.17-.44.35-.44.52-.09,1.12-.7,2.15-.61,3.35a1.26,1.26,0,0,1-1,1.55,16,16,0,0,0-2.18.78A.64.64,0,0,1,374.61,235.5Zm5.15-5.85,3-8.17v0Zm10.91-26.84v0Z"/><path d="M394.26,238.68a6.44,6.44,0,0,1-3.06-2.58,11,11,0,0,0-2.1-2.75,7.08,7.08,0,0,1-1.57-2.84,5.29,5.29,0,0,1-.09-2,23.79,23.79,0,0,1,1.58-5c.61-1.29,1.13-2.58,1.66-3.87a70.53,70.53,0,0,1,3.4-7.31c1.4-3,2.8-6,3.93-9.11a12.12,12.12,0,0,1,.87-1.81,27.83,27.83,0,0,0,1.49-2.75,25.43,25.43,0,0,1,2.71-4.82,19.56,19.56,0,0,0,1.57-2.92c.78-1.47,1.48-3,2.44-4.48a5.51,5.51,0,0,0,.7-1.63,2.67,2.67,0,0,1,.79-1.55c.35-.34.17-.69-.26-.77-.27-.09-.44-.09-.7-.18a1.38,1.38,0,0,1-1.14-1.37,1.57,1.57,0,0,1,1-1.64,3.36,3.36,0,0,1,1-.17l2.27-.26a1.9,1.9,0,0,0,1.14-.25c.09,0,.17-.18.17-.26s-.17-.17-.26-.17a3.09,3.09,0,0,0-1.57,0c-.87.08-1.66.17-2.53.17-.09,0-.27-.09-.27-.17a.28.28,0,0,1,.27-.26,1.85,1.85,0,0,1,.7-.09l3-.26c.35,0,.79-.08,1.14-.08s.44-.17.52-.43-.08-.35-.61-.35c-1,0-1.92.09-3,.09-.52,0-1,.09-1.66.09s-1-.35-.87-1a2.66,2.66,0,0,1,2-2.15,8.7,8.7,0,0,1,1.48-.08c1.14-.09,2.27-.09,3.5-.26.26,0,.52-.09.78-.09q4.45.13,8.91,0a23.72,23.72,0,0,0,2.53,0,33.18,33.18,0,0,1,7.69.95,4.36,4.36,0,0,1,3,2.67c.17.34-.18.68-.53.68a10.75,10.75,0,0,1-1.66-.25,29,29,0,0,0-8.64-1h-6.81c-.88.09-1.4.26-1.23.52.27.51.79.34,1.14.34h9.95c1.84.09,3.67.26,5.51.52a12.7,12.7,0,0,1,1.74.51c.18.09.35.17.18.35s-.26.51.08.68a2.43,2.43,0,0,1,1.14,1.9c.09.94-.17,1.29-1.05,1.2a26,26,0,0,1-2.62-.34,43.36,43.36,0,0,0-9.43-.61c-1.22,0-2.44.09-3.67.18a3,3,0,0,0-1,.17c-.17.08-.35.17-.35.34s.27.35.44.35h1.66c2.36,0,4.71,0,7.16.08a47.12,47.12,0,0,1,4.89.26,12,12,0,0,1,3.06.69c.17.08.35.17.35.34s-.09.26-.18.35a4.23,4.23,0,0,1-2.88.68c-3-.34-5.94-.34-8.91-.43.09-.34.44-.25.61-.25a23.16,23.16,0,0,1,2.36.08,11.8,11.8,0,0,0,2.45,0c.08-.08.17-.17.17-.26a.19.19,0,0,0-.17-.17.36.36,0,0,0-.27-.08,50.93,50.93,0,0,0-9,0,5,5,0,0,0-1.14.17c-.08,0-.08.17-.17.26.09.08.17.17.26.17h1.31a7.21,7.21,0,0,1,1.31.08,4,4,0,0,1-2,.43,2.48,2.48,0,0,0-2.62,1.9c-.78,2.49-1.66,5.07-2.35,7.65,0,.17-.09.35-.09.52a.8.8,0,0,0,.87.94,39.6,39.6,0,0,1,4.28.26,19.79,19.79,0,0,1,2.27.35,5.85,5.85,0,0,1,2.88,1.54,2.43,2.43,0,0,1,.79,1,6.52,6.52,0,0,0,1.75,2.58c.17.17.26.34.43.51a2,2,0,0,1,.44,2c-.09.26-.09.52-.18.78a.78.78,0,0,0,.27.86c.26.17.52.34.43.68s-.35.43-.52.61a2.13,2.13,0,0,1-1.57.34l-1.31-.26a11.85,11.85,0,0,0-4.28-.08,16,16,0,0,1-3.5.43,15.77,15.77,0,0,0-1.92.25,14.14,14.14,0,0,1-4.28.43,2.28,2.28,0,0,0-2.7,1.47,1.94,1.94,0,0,1-.35.51c-.09,0-.09-.34-.26-.08.08,0,.17.08.26.08a2.38,2.38,0,0,1-.7,1.64c0-.17,0-.35-.09-.43s-.35-.09-.43.08c-.18.35-.44.69-.62,1.12-.61,1.64-1.13,3.27-1.74,4.9-.44,1-1,2.15-1.4,3.19a17.83,17.83,0,0,0-1.05,3.7c-.08.25.18.34.44.25a.43.43,0,0,1,.44,0c.35.69.87.61,1.39.43,1.23-.25,2.36-.43,3.58-.77a18.69,18.69,0,0,1,4.89-.69,8.48,8.48,0,0,1,3,.52,3,3,0,0,1,2,1.55,3,3,0,0,0,1.4,1.11,4.25,4.25,0,0,1,2.79,3,6.36,6.36,0,0,0,.88,1.72.87.87,0,0,1-.27,1.38,2.56,2.56,0,0,1-1.57.43,19.62,19.62,0,0,0-5.85,1.12,18.83,18.83,0,0,1-2.09.6c-.35.17-.79.26-1.23.43a4.84,4.84,0,0,1-1.57.52,1.79,1.79,0,0,0-1,.25,9.2,9.2,0,0,1-3,1.3c-.7.25-1.4.51-2,.77a21.09,21.09,0,0,1-2.27.69,9.32,9.32,0,0,0-1.92.51,6.31,6.31,0,0,1-3.58.26A18.63,18.63,0,0,1,394.26,238.68Zm13.27-23.56a3.32,3.32,0,0,1-.35,1.54,5.7,5.7,0,0,0-.44.52A4.08,4.08,0,0,1,407.53,215.12Zm1.4-3.27h-.09a8,8,0,0,1-1.31,3.27A6.36,6.36,0,0,1,408.93,211.85Zm7.94-24.34.09-.09-.17.09Zm.61-1.21,14.24-7.83a.18.18,0,0,0,.17-.17c0-.08-.08-.26-.17-.26a10.89,10.89,0,0,0-1.57-.25c-3.58-.18-7.08-.09-10.57,0a1.18,1.18,0,0,0-.52.08.19.19,0,0,0-.18.17c-.09.18.09.35.26.35a7.17,7.17,0,0,0,1.31,0c1.75,0,3.41-.09,5.16-.17l3.75.25Zm1.13,5.77v-.09l-.08.09Z"/><path d="M476.52,238.68c-1.23-.77-2.62-1.11-3.67-2.15-.17-.17-.44-.08-.61,0a1.34,1.34,0,0,1-.87-.43,4.12,4.12,0,0,0-2.71-1.37,30.52,30.52,0,0,1-7.69-2.84.33.33,0,0,0,.27-.09c.08-.08.08-.26,0-.26a.17.17,0,0,0-.27-.08.28.28,0,0,0-.08.17.52.52,0,0,0,.08.34c-.52-.17-1-.25-1.57-.43-.17-.08-.44-.17-.44-.25.09-1-.87-1-1.39-1.21-1.05-.43-2.1-.69-3.15-1-.61-.17-1.31-.52-1.92-.09a.8.8,0,0,1-.78,0,12.81,12.81,0,0,1-3.06-1.63,1.75,1.75,0,0,0-1.13.95,10.31,10.31,0,0,0-1,2.23,20,20,0,0,1-2.18,5.94c-.09.08,0,.17,0,.26a.29.29,0,0,0,.35,0c.18-.18.44-.35.61-.52a3.94,3.94,0,0,1-1,1.72.94.94,0,0,1-1.22.43c-.43-.17-.78.26-1.22.34-.7.18-1.31.26-1.75-.43a1,1,0,0,0-1.13-.43,1.42,1.42,0,0,1-1.4-.68,3.59,3.59,0,0,1-1.05-2.33c-.08-.51-.17-.86-.7-1a3.34,3.34,0,0,1-1.66-2.67,6.69,6.69,0,0,1,.09-2.23,34,34,0,0,1,3-8.52c.79-1.63,1.4-3.35,2.36-5a1.51,1.51,0,0,0,.17-.6c.53-2.66,1.84-5.07,2.89-7.48.69-1.81,1.3-3.7,2.09-5.51.7-1.46,1.4-2.83,2.1-4.3,1.48-3.44,3.49-6.53,5.24-9.8.35-.69.87-1.38,1.31-2.07a4.59,4.59,0,0,0,.52-.69c.26-.43.09-.77-.44-1-.17-.08-.35-.08-.61-.17a5.17,5.17,0,0,1,.88-.26c.08-.08.17-.17.17-.26a.19.19,0,0,0-.17-.17,1.23,1.23,0,0,0-.53-.08c-3.14.17-6.29.6-9.34,1-.79.08-1.49.17-2.19.26h-.78c-.18-.09-.35-.18-.35-.35s.09-.26.17-.26a2.87,2.87,0,0,1,.79-.17c2.27-.17,4.45-.6,6.64-.86s4.28-.51,6.37-.6a3.52,3.52,0,0,0,1.66-.26.32.32,0,0,0,.18-.43c0-.08-.18-.17-.27-.17a1.42,1.42,0,0,0-.61-.09,67.33,67.33,0,0,0-13,1.64,5.76,5.76,0,0,1-2.1.17c-1-.09-1.57-.77-1-1.72.09-.09.09-.17.18-.26.26-.26.26-.51,0-.86a1.48,1.48,0,0,1,.35-2.06,3.29,3.29,0,0,1,1.31-.78,32.2,32.2,0,0,1,7.6-2.23c.17,0,.43-.09.61-.09a13.18,13.18,0,0,0,4.1-.6,12.6,12.6,0,0,1,3.58-.52c2.27-.08,4.54-.26,6.81-.34a20.69,20.69,0,0,1,2.27.08,57.48,57.48,0,0,1,6.73,1,16.83,16.83,0,0,1,10,5.85,14.26,14.26,0,0,1,3,5.67,44.08,44.08,0,0,1,1.13,6.88,24.5,24.5,0,0,1-.17,5.08,3.66,3.66,0,0,1-.35,1.29,21.93,21.93,0,0,1-3.14,5c-.79.94-1.92,1.72-2.45,3-.26.6-1,.86-1.57,1.2a.75.75,0,0,0-.52.86,27.52,27.52,0,0,1-2.45,2,16,16,0,0,0-3.14,2.84,6.61,6.61,0,0,1-2,1.38c-.35,0-.44.08-.35.34a13.48,13.48,0,0,1-1.31,1v.08h-.7v-.08c-.35.17-.79.25-1.13.43s-.27.34.17.6h-.09a3.36,3.36,0,0,1-2.62,1c-.52-.09-.7.09-.78.77,0,.43-.53.78-.27,1.29s.79.52,1.23.78a72.14,72.14,0,0,0,7.51,3.27,5.12,5.12,0,0,1,2,1.12,5.85,5.85,0,0,0,1.92,1.29,14.5,14.5,0,0,1,2.79,1.72,3.87,3.87,0,0,1,1.57,2.75c.09.34-.08.6-.52.69s-.61.34-.61.77a7.38,7.38,0,0,0,.52,1.2,3.65,3.65,0,0,1,.44,1.72.87.87,0,0,1-1.14.95,6.41,6.41,0,0,1-1.13-.26c-.26-.08-.61-.43-.79-.08s.35.51.53.77c.17.09.26.17.43.26.35.26,1,.43.88.86-.09.6-.79.34-1.23.43A2.94,2.94,0,0,1,476.52,238.68Zm-31.27-60.21c1.58-.25,3.06-.51,4.63-.68a80.31,80.31,0,0,1,13.71-.69,30.4,30.4,0,0,1,3.93.17c1,.17,1.84.17,2.88.26-.17-.52-.61-.43-.87-.52a39.52,39.52,0,0,0-7.07-.77,81.86,81.86,0,0,0-14.5,1.2c-1.13.17-2.18.43-3.32.69a1.13,1.13,0,0,1-.17.26c.09,0,.17.08.26.08S445.08,178.47,445.25,178.47Zm.44,57v.09c-.09.17-.26.43-.35.6A6.44,6.44,0,0,1,445.69,235.5Zm0,0v0Zm9.69-57.2c3.15-.26,6.38-.17,9.61-.6-.26,0-.44-.09-.7-.09a71.9,71.9,0,0,0-8.56,0,70.76,70.76,0,0,0-8.38,1c-.44.08-.87.17-1.22.25-.09.09-.18.09-.18.18a.27.27,0,0,0,.09.17C449.1,178.9,452.24,178.56,455.38,178.3ZM475,235.16c0-.09-.09-.18-.09-.26a7.4,7.4,0,0,1-.87-.52c-3.76-1.8-7.6-3.52-11.53-5-1.57-.51-3.15-1.2-4.63-1.72-2.36-.86-4.72-1.72-7.07-2.49a.85.85,0,0,0-.79,0c-.09,0-.09.17-.09.26.18.34.61.43.88.6a61.41,61.41,0,0,0,6.63,2.58c4.46,1.55,8.82,3.18,13.19,5,1,.43,1.92.94,2.88,1.29a5.48,5.48,0,0,0,1.22.43C474.77,235.33,474.86,235.24,475,235.16Zm-22.88-13.68-.09.09.09.08Zm1.83,8.09.09.08Zm.17.08h0Zm1.75.6a.09.09,0,0,1,.09.09A.09.09,0,0,0,455.82,230.25Zm.18.09h0ZM458,210a22.9,22.9,0,0,0,5.07-2.84l2.36-1.81c1.66-1.2,3.4-2.41,5-3.78a42.89,42.89,0,0,0,5.68-5.51c1-1.2,2-2.32,3-3.53a4.2,4.2,0,0,0,.61-.77c.53-.95.53-1.29-.35-2.15a15.49,15.49,0,0,0-4.36-2.92c-1.14-.43-2.27-.78-3.41-1.21a10.79,10.79,0,0,0-4.37-.95c-.26,0-.69,0-.69-.17-.27-.43-.62-.43-1.05-.34-1.75.26-1.92.43-1.49,2.24a3.44,3.44,0,0,1-.08,1.89c-.35,1.12-.62,2.23-1.05,3.27-.09.17-.09.43,0,.43.17.17.26,0,.35-.18.26-.34.43-.77.7-1.11a.57.57,0,0,1,.52-.35.49.49,0,0,1,.26.69,5.82,5.82,0,0,1-.52,1.72,3,3,0,0,0-.53,1.38c-.08.77-.7,1.29-.7,1.89,0,.94-.69,1.38-1,2.06a2.16,2.16,0,0,1-.17,1.47,19.22,19.22,0,0,0-.87,2.06c-.44.86-.7,1.89-1.84,2.24l-.09.08c-.08.17-.26.43,0,.6.44.26.35.61.18.95-.52,1-1.05,2-1.57,2.92a6.55,6.55,0,0,0-.44,1.21.51.51,0,0,0,.61.6C457.83,210,457.92,210,458,210Zm.09-4a1.21,1.21,0,0,0,.18-.6c-.09.17-.27.34-.35.51a.11.11,0,0,0,0,.17C458,206.17,458.09,206.17,458.09,206Zm6.55,20.38h-.09a2.78,2.78,0,0,0-1.66-.68,2.3,2.3,0,0,0-1.65-.61,5.32,5.32,0,0,0-2.28-1.2c-.08,0-.17.09-.26.09s0,.25.09.25a6.31,6.31,0,0,0,2.45.86,2.94,2.94,0,0,0,1.65.61,3.09,3.09,0,0,0,1.66.68Zm9.61,2.76a5,5,0,0,0-1.49-.86c-2.18-1-4.45-2-6.63-2.93-1.84-.77-3.67-1.55-5.51-2.23a2.45,2.45,0,0,0-.78-.18c-.09,0-.26.09-.26.18s0,.25.08.25a10.07,10.07,0,0,0,1.4.69c3.49,1.46,7,2.93,10.39,4.3a15.83,15.83,0,0,0,2.19.86A.44.44,0,0,0,474.25,229.14Zm-12.49-34.67-.09-.08a.18.18,0,0,0-.17.17l.08.08C461.67,194.56,461.67,194.47,461.76,194.47Zm6.81-11.95.09-.09c0-.09,0-.26-.09-.26a1.86,1.86,0,0,0-.87-.34c-1.49-.26-2.88-.43-4.19-.69-.44.09-.7.09-1.05.17-.09,0-.18.17-.18.26a.31.31,0,0,0,.09.26c.18.08.35.08.44.17l5.24.52Zm-3.93,50.4c-.35-.09-.7-.26-1.05-.34h0a4.76,4.76,0,0,1,1.05.34,5.41,5.41,0,0,0,2.1.77A3.37,3.37,0,0,0,464.64,232.92ZM466.3,227h-.09l.09.08c.18.09.44.17.61.26A2.51,2.51,0,0,1,466.3,227Zm1.92-9.47a1.17,1.17,0,0,1-.26.35h-.09C468.05,217.78,468.13,217.61,468.22,217.52Zm.7-.25c-.26.08-.44.17-.7.25C468.48,217.44,468.66,217.35,468.92,217.27Zm0-.35h.7a5.89,5.89,0,0,0-.7.26Zm.44,11.44h0Zm1.92-12.81-.35.34Zm5.06,14.79-.08-.09c-.27-.08-.44-.17-.7-.25a5.34,5.34,0,0,1,.7.34Z"/><path d="M489.71,238.68a6.44,6.44,0,0,1-3.06-2.58,11,11,0,0,0-2.1-2.75,7.08,7.08,0,0,1-1.57-2.84,5.29,5.29,0,0,1-.09-2,23.79,23.79,0,0,1,1.58-5c.61-1.29,1.13-2.58,1.65-3.87a72.73,72.73,0,0,1,3.41-7.31c1.4-3,2.8-6,3.93-9.11a11.21,11.21,0,0,1,.87-1.81,30.09,30.09,0,0,0,1.49-2.75,25.43,25.43,0,0,1,2.71-4.82A19.56,19.56,0,0,0,500.1,191c.78-1.47,1.48-3,2.44-4.48a5.51,5.51,0,0,0,.7-1.63,2.67,2.67,0,0,1,.79-1.55c.35-.34.17-.69-.27-.77-.26-.09-.43-.09-.69-.18a1.38,1.38,0,0,1-1.14-1.37,1.57,1.57,0,0,1,1-1.64,3.36,3.36,0,0,1,1-.17l2.27-.26a1.9,1.9,0,0,0,1.14-.25c.09,0,.17-.18.17-.26s-.17-.17-.26-.17a3.09,3.09,0,0,0-1.57,0c-.87.08-1.66.17-2.53.17-.09,0-.27-.09-.27-.17a.28.28,0,0,1,.27-.26,1.82,1.82,0,0,1,.69-.09l3-.26c.35,0,.79-.08,1.14-.08s.44-.17.52-.43-.08-.35-.61-.35c-1,0-1.92.09-3,.09-.52,0-1.05.09-1.66.09s-1-.35-.87-1a2.66,2.66,0,0,1,2-2.15,8.7,8.7,0,0,1,1.48-.08c1.14-.09,2.27-.09,3.5-.26.26,0,.52-.09.78-.09q4.45.13,8.91,0a23.72,23.72,0,0,0,2.53,0,33.18,33.18,0,0,1,7.69.95,4.39,4.39,0,0,1,3,2.67c.17.34-.18.68-.53.68a10.75,10.75,0,0,1-1.66-.25,29,29,0,0,0-8.64-1h-6.81c-.88.09-1.4.26-1.23.52.27.51.79.34,1.14.34h10c1.84.09,3.67.26,5.51.52a12.7,12.7,0,0,1,1.74.51c.18.09.35.17.18.35s-.27.51.08.68a2.46,2.46,0,0,1,1.14,1.9c.09.94-.18,1.29-1,1.2a26,26,0,0,1-2.62-.34,43.36,43.36,0,0,0-9.43-.61c-1.22,0-2.44.09-3.67.18a3,3,0,0,0-1,.17c-.17.08-.35.17-.35.34s.26.35.44.35H517c2.36,0,4.71,0,7.16.08a47.12,47.12,0,0,1,4.89.26,12,12,0,0,1,3.06.69c.17.08.35.17.35.34s-.09.26-.18.35a4.23,4.23,0,0,1-2.88.68c-3-.34-5.94-.34-8.91-.43.09-.34.44-.25.61-.25a23.26,23.26,0,0,1,2.36.08,11.8,11.8,0,0,0,2.45,0c.08-.08.17-.17.17-.26a.19.19,0,0,0-.17-.17.36.36,0,0,0-.27-.08,50.93,50.93,0,0,0-9,0,5,5,0,0,0-1.14.17c-.08,0-.08.17-.17.26.09.08.17.17.26.17H517a7.21,7.21,0,0,1,1.31.08,4,4,0,0,1-2,.43,2.47,2.47,0,0,0-2.62,1.9c-.78,2.49-1.66,5.07-2.36,7.65,0,.17-.08.35-.08.52a.8.8,0,0,0,.87.94,39.75,39.75,0,0,1,4.28.26,19.79,19.79,0,0,1,2.27.35,5.85,5.85,0,0,1,2.88,1.54,2.43,2.43,0,0,1,.79,1A6.6,6.6,0,0,0,524,201.7c.18.17.27.34.44.51a2,2,0,0,1,.44,2c-.09.26-.09.52-.18.78a.79.79,0,0,0,.26.86c.27.17.53.34.44.68s-.35.43-.52.61a2.13,2.13,0,0,1-1.57.34L522,207.2a11.85,11.85,0,0,0-4.28-.08,16,16,0,0,1-3.5.43,15.77,15.77,0,0,0-1.92.25,14.14,14.14,0,0,1-4.28.43,2.28,2.28,0,0,0-2.7,1.47,1.94,1.94,0,0,1-.35.51c-.09,0-.09-.34-.26-.08.08,0,.17.08.26.08a2.38,2.38,0,0,1-.7,1.64c0-.17,0-.35-.09-.43s-.35-.09-.44.08c-.17.35-.43.69-.61,1.12-.61,1.64-1.13,3.27-1.74,4.9-.44,1-1,2.15-1.4,3.19a17.83,17.83,0,0,0-1.05,3.7c-.09.25.18.34.44.25a.41.41,0,0,1,.43,0c.35.69.88.61,1.4.43,1.23-.25,2.36-.43,3.58-.77a18.63,18.63,0,0,1,4.89-.69,8.48,8.48,0,0,1,3,.52,3,3,0,0,1,2,1.55,3,3,0,0,0,1.4,1.11,4.25,4.25,0,0,1,2.79,3,6.36,6.36,0,0,0,.88,1.72.87.87,0,0,1-.27,1.38,2.56,2.56,0,0,1-1.57.43,19.62,19.62,0,0,0-5.85,1.12,18.39,18.39,0,0,1-2.1.6c-.34.17-.78.26-1.22.43a4.84,4.84,0,0,1-1.57.52,1.79,1.79,0,0,0-1,.25,9.2,9.2,0,0,1-3,1.3c-.7.25-1.4.51-2,.77A21.09,21.09,0,0,1,499,239a9.32,9.32,0,0,0-1.92.51,6.31,6.31,0,0,1-3.58.26A18.63,18.63,0,0,1,489.71,238.68ZM503,215.12a3.32,3.32,0,0,1-.35,1.54,5.7,5.7,0,0,0-.44.52A4.08,4.08,0,0,1,503,215.12Zm1.4-3.27h-.09a8.16,8.16,0,0,1-1.31,3.27A6.36,6.36,0,0,1,504.38,211.85Zm7.94-24.34.09-.09-.17.09Zm.61-1.21,14.24-7.83a.18.18,0,0,0,.17-.17c0-.08-.08-.26-.17-.26a10.89,10.89,0,0,0-1.57-.25c-3.58-.18-7.08-.09-10.57,0a1.16,1.16,0,0,0-.52.08.19.19,0,0,0-.18.17c-.09.18.09.35.26.35a7.17,7.17,0,0,0,1.31,0c1.75,0,3.41-.09,5.16-.17l3.75.25Zm1.13,5.77v-.09l-.08.09Z"/></svg>