<?xml version="1.0" encoding="utf-8"?>
<!-- Generator: Adobe Illustrator 24.0.2, SVG Export Plug-In . SVG Version: 6.00 Build 0)  -->
<svg version="1.1" id="Calque_1" xmlns="http://www.w3.org/2000/svg" xmlns:xlink="http://www.w3.org/1999/xlink" x="0px" y="0px"
	 viewBox="0 0 24 24" style="enable-background:new 0 0 24 24;" xml:space="preserve">
<style type="text/css">
	.st0{fill:#FFFFFF;}
</style>
<path class="st0" d="M23,12.5c0,2.5-1.8,5.8-5,7v-2.2c3.2-1.8,4-6.3,1.6-6.3H18V9h1.9C22.1,9,23,10.5,23,12.5z M18,22.4V24H2v-1.6
	c0.7,0,1-0.5,1-1.2V8.4C1.8,7.8,1,6.7,1,5.3C1,3,3.1,1.4,5.2,1.8C6.3,0.8,7.7,0.5,9,1c0.8-0.6,1.6-1,2.6-1c1.5,0,3,0.8,3.7,1.8
	c1.8,0.1,3.3,1.6,3.3,3.5c0,1.3-0.6,2.5-1.7,3.1v12.8C17,21.9,17.3,22.4,18,22.4z M7,11c0-0.6-0.4-1-1-1s-1,0.4-1,1v8
	c0,0.6,0.4,1,1,1s1-0.4,1-1V11z M11,11c0-0.6-0.4-1-1-1s-1,0.4-1,1v8c0,0.6,0.4,1,1,1s1-0.4,1-1V11z M15,11c0-0.6-0.4-1-1-1
	s-1,0.4-1,1v8c0,0.6,0.4,1,1,1s1-0.4,1-1V11z M17.1,5.3c0-1.1-0.9-1.9-1.9-1.9c-0.2,0-0.5,0-0.7,0.1c-0.4-1.1-1.4-2-2.7-2
	c-1,0-1.9,0.5-2.4,1.4C9,2.6,8.4,2.3,7.8,2.3c-0.9,0-1.7,0.5-2.1,1.3C5.5,3.4,5.1,3.3,4.7,3.3c-2.8,0-2.8,3.9,0,3.9
	c0.6,0,1.2-0.3,1.6-0.8C6.7,6.8,7.2,7,7.8,7c0.7,0,1.3-0.3,1.8-0.8c0.5,0.6,1.3,1,2.2,1c0.7,0,1.3-0.3,1.8-0.7
	C14,7,14.5,7.3,15.2,7.3C16.2,7.3,17.1,6.4,17.1,5.3z"/>
</svg>
