<?xml version="1.0" encoding="utf-8"?>
<!-- Generator: Adobe Illustrator 24.0.2, SVG Export Plug-In . SVG Version: 6.00 Build 0)  -->
<svg version="1.1" id="Calque_1" xmlns="http://www.w3.org/2000/svg" xmlns:xlink="http://www.w3.org/1999/xlink" x="0px" y="0px"
	 viewBox="0 0 24 24" style="enable-background:new 0 0 24 24;" xml:space="preserve">
<style type="text/css">
	.st0{fill:#16AB39;}
</style>
<path class="st0" d="M12,7c4.8,0,8.1,3,9.5,4.6C20.1,13.5,16.8,17,12,17c-4.4,0-7.9-3.5-9.5-5.4C4,9.9,7.4,7,12,7z M12,5
	C4.4,5,0,11.6,0,11.6S4.8,19,12,19c7.7,0,12-7.4,12-7.4S19.7,5,12,5z M12,8c-2.2,0-4,1.8-4,4s1.8,4,4,4s4-1.8,4-4S14.2,8,12,8z
	 M12,12c-0.6,0.6-1.5,0.6-2,0s-0.6-1.5,0-2c0.6-0.6,1.5-0.6,2,0S12.6,11.4,12,12z"/>
</svg>
