<?xml version="1.0" encoding="utf-8"?>
<!-- Generator: Adobe Illustrator 24.0.2, SVG Export Plug-In . SVG Version: 6.00 Build 0)  -->
<svg version="1.1" id="Capa_1" xmlns="http://www.w3.org/2000/svg" xmlns:xlink="http://www.w3.org/1999/xlink" x="0px" y="0px"
	 viewBox="0 0 512 512" style="enable-background:new 0 0 512 512;" xml:space="preserve">
<style type="text/css">
	.st0{fill:#DBAD4D;}
</style>
<path class="st0" d="M510.5,430.3L451.7,319c-1.9-3.7-6.5-5.1-10.1-3.1c-3.7,1.9-5.1,6.5-3.1,10.1l56.9,107.7H295.9
	C295.7,432.5,209,268,209,268l12.9-24l13.5,17.7c2.3,3,5.7,4.8,9.5,4.9c3.7,0.2,7.3-1.4,9.8-4.2l32.5-36.3l63.1,74.5
	c2.4,2.8,5.8,4.4,9.4,4.4h0.1c3.6,0,7-1.6,9.4-4.3c0,0,0-0.1,0.1-0.1l3.2-3.8l31.6-36l13.6,25.8c1.9,3.7,6.5,5.1,10.1,3.1
	c3.7-1.9,5.1-6.5,3.1-10.1l-19-36c0-0.1-0.1-0.1-0.1-0.2L320.2,70c-2.2-4.1-6.4-6.7-11-6.7c-4.6,0-8.9,2.5-11,6.6l-78.6,146.8
	l-5.3,9.9L200.7,252l-40.5-76.6c-1.6-3.1-4.4-5.3-7.7-6.2c-1.1-0.3-2.2-0.5-3.4-0.5c-0.2,0-0.3,0-0.5,0c-0.1,0-0.3,0-0.4,0
	s-0.2,0-0.3,0c-0.2,0-0.3,0-0.5,0.1c-0.2,0-0.3,0.1-0.4,0.1c-0.1,0-0.3,0-0.4,0.1c-3.6,0.7-6.7,3-8.5,6.4l-27.4,51.2l-46.1,86.1
	l-63,117.5c-2.1,3.9-2,8.5,0.3,12.3s6.3,6.1,10.7,6.1h486.9c4.4,0,8.4-2.3,10.7-6.1C512.5,438.8,512.6,434.2,510.5,430.3z
	 M322.9,107.2L396.2,246l-36.3,42.7l-63.1-74.4c-2.3-2.8-5.8-4.4-9.4-4.4c0,0-0.1,0-0.1,0c0,0,0,0,0,0c-0.1,0-0.1,0-0.2,0
	c-3.6,0-7,1.5-9.3,4.2l-32.3,36.1l-15.8-20.6l79.5-148.3L322.9,107.2z M16.7,433.5l56.6-105.8L95.2,346c2.4,2,5.2,2.9,8,2.9
	c3.4,0,6.9-1.4,9.3-4.2l25.1-28.1l16.1,16c2.9,2.9,7.7,2.9,10.6,0c2.9-2.9,2.9-7.7,0-10.6l-18-17.8c-2.4-2.4-5.8-3.7-9.2-3.6
	c-3.4,0.1-6.7,1.6-9,4.2L103,333.1l-22.4-18.8L149,186.5l88.3,167.2L216,373.4L196.5,354c-2.9-2.9-7.7-2.9-10.6,0
	c-2.9,2.9-2.9,7.7,0,10.6l21.2,21c2.4,2.4,5.6,3.6,8.8,3.6c3,0,6.1-1.1,8.5-3.3l20.1-18.6l35,66.2H16.7z"/>
</svg>
